<?xml version="1.0" encoding="UTF-8" standalone="no"?>
<!DOCTYPE svg PUBLIC "-//W3C//DTD SVG 1.1//EN"
 "http://www.w3.org/Graphics/SVG/1.1/DTD/svg11.dtd">
<!-- Generated by graphviz version 2.50.0 (20211204.2007)
 -->
<!-- Title: G Pages: 1 -->
<svg width="3160pt" height="1651pt"
 viewBox="0.00 0.00 3160.00 1651.21" xmlns="http://www.w3.org/2000/svg" xmlns:xlink="http://www.w3.org/1999/xlink">
<g id="graph0" class="graph" transform="scale(1 1) rotate(0) translate(4 1647.21)">
<title>G</title>
<polygon fill="white" stroke="transparent" points="-4,4 -4,-1647.21 3156,-1647.21 3156,4 -4,4"/>
<g id="clust1" class="cluster">
<title>cluster0</title>
<polygon fill="blue" stroke="blue" points="1257,-1082.33 1257,-1635.21 2036,-1635.21 2036,-1082.33 1257,-1082.33"/>
<text text-anchor="middle" x="1646.5" y="-1620.01" font-family="Times New Roman,serif" font-size="14.00">NCERT Class 1</text>
</g>
<g id="clust2" class="cluster">
<title>cluster1</title>
<polygon fill="red" stroke="red" points="2044,-568.88 2044,-1206.89 3144,-1206.89 3144,-568.88 2044,-568.88"/>
<text text-anchor="middle" x="2594" y="-1191.69" font-family="Times New Roman,serif" font-size="14.00">NCERT Class 2</text>
</g>
<g id="clust5" class="cluster">
<title>cluster4</title>
<polygon fill="pink" stroke="pink" points="738,-8 738,-449.93 1290,-449.93 1290,-8 738,-8"/>
<text text-anchor="middle" x="1014" y="-434.73" font-family="Times New Roman,serif" font-size="14.00">NCERT Class 5</text>
</g>
<g id="clust4" class="cluster">
<title>cluster3</title>
<polygon fill="green" stroke="green" points="1002,-457.93 1002,-682.83 2036,-682.83 2036,-457.93 1002,-457.93"/>
<text text-anchor="middle" x="1519" y="-667.63" font-family="Times New Roman,serif" font-size="14.00">NCERT Class 4</text>
</g>
<g id="clust3" class="cluster">
<title>cluster2</title>
<polygon fill="yellow" stroke="yellow" points="8,-568.88 8,-971.38 994,-971.38 994,-568.88 8,-568.88"/>
<text text-anchor="middle" x="501" y="-956.18" font-family="Times New Roman,serif" font-size="14.00">NCERT Class 3</text>
</g>
<!-- M_DH_1_1 -->
<g id="node1" class="node">
<title>M_DH_1_1</title>
<ellipse fill="none" stroke="black" cx="1907" cy="-1556.13" rx="120.83" ry="48.17"/>
<text text-anchor="middle" x="1907" y="-1574.93" font-family="Times New Roman,serif" font-size="14.00">Classify objects into</text>
<text text-anchor="middle" x="1907" y="-1559.93" font-family="Times New Roman,serif" font-size="14.00">categories based on colour,</text>
<text text-anchor="middle" x="1907" y="-1544.93" font-family="Times New Roman,serif" font-size="14.00">shape and size (concretely)</text>
<text text-anchor="middle" x="1907" y="-1529.93" font-family="Times New Roman,serif" font-size="14.00">(M_DH_1_1)</text>
</g>
<!-- M_DH_1_2 -->
<g id="node2" class="node">
<title>M_DH_1_2</title>
<ellipse fill="none" stroke="black" cx="1907" cy="-1423.96" rx="120.83" ry="48.17"/>
<text text-anchor="middle" x="1907" y="-1442.76" font-family="Times New Roman,serif" font-size="14.00">Classify objects into</text>
<text text-anchor="middle" x="1907" y="-1427.76" font-family="Times New Roman,serif" font-size="14.00">categories based on colour,</text>
<text text-anchor="middle" x="1907" y="-1412.76" font-family="Times New Roman,serif" font-size="14.00">shape and size (pictorially)</text>
<text text-anchor="middle" x="1907" y="-1397.76" font-family="Times New Roman,serif" font-size="14.00">(M_DH_1_2)</text>
</g>
<!-- M_DH_1_1&#45;&gt;M_DH_1_2 -->
<g id="edge1" class="edge">
<title>M_DH_1_1&#45;&gt;M_DH_1_2</title>
<path fill="none" stroke="black" d="M1907,-1507.77C1907,-1499.5 1907,-1490.82 1907,-1482.31"/>
<polygon fill="black" stroke="black" points="1910.5,-1482.07 1907,-1472.07 1903.5,-1482.07 1910.5,-1482.07"/>
</g>
<!-- M_DH_1_3 -->
<g id="node3" class="node">
<title>M_DH_1_3</title>
<ellipse fill="none" stroke="black" cx="1651" cy="-1556.13" rx="117.26" ry="37.45"/>
<text text-anchor="middle" x="1651" y="-1567.43" font-family="Times New Roman,serif" font-size="14.00">Read tables and interprets</text>
<text text-anchor="middle" x="1651" y="-1552.43" font-family="Times New Roman,serif" font-size="14.00">quantity information (up to</text>
<text text-anchor="middle" x="1651" y="-1537.43" font-family="Times New Roman,serif" font-size="14.00">10) (M_DH_1_3)</text>
</g>
<!-- M_DH_1_4 -->
<g id="node4" class="node">
<title>M_DH_1_4</title>
<ellipse fill="none" stroke="black" cx="1627" cy="-1423.96" rx="141.34" ry="26.74"/>
<text text-anchor="middle" x="1627" y="-1427.76" font-family="Times New Roman,serif" font-size="14.00">List number of objects (up to</text>
<text text-anchor="middle" x="1627" y="-1412.76" font-family="Times New Roman,serif" font-size="14.00">10) in tabular form (M_DH_1_4)</text>
</g>
<!-- M_DH_1_3&#45;&gt;M_DH_1_4 -->
<g id="edge2" class="edge">
<title>M_DH_1_3&#45;&gt;M_DH_1_4</title>
<path fill="none" stroke="black" d="M1644.25,-1518.52C1640.94,-1500.55 1636.96,-1478.96 1633.65,-1461.05"/>
<polygon fill="black" stroke="black" points="1637.05,-1460.19 1631.8,-1450.99 1630.17,-1461.46 1637.05,-1460.19"/>
</g>
<!-- M_DH_2_2 -->
<g id="node7" class="node">
<title>M_DH_2_2</title>
<ellipse fill="none" stroke="black" cx="1467" cy="-1291.8" rx="119.5" ry="37.45"/>
<text text-anchor="middle" x="1467" y="-1303.1" font-family="Times New Roman,serif" font-size="14.00">Gather responses to simple</text>
<text text-anchor="middle" x="1467" y="-1288.1" font-family="Times New Roman,serif" font-size="14.00">questions and create a list</text>
<text text-anchor="middle" x="1467" y="-1273.1" font-family="Times New Roman,serif" font-size="14.00">(M_DH_2_2)</text>
</g>
<!-- M_DH_1_3&#45;&gt;M_DH_2_2 -->
<g id="edge4" class="edge">
<title>M_DH_1_3&#45;&gt;M_DH_2_2</title>
<path fill="none" stroke="black" d="M1574.37,-1527.51C1533.45,-1511.1 1489.07,-1490.05 1477,-1472.04 1450.95,-1433.19 1452.01,-1378.28 1457.34,-1339.5"/>
<polygon fill="black" stroke="black" points="1460.82,-1339.92 1458.86,-1329.51 1453.9,-1338.87 1460.82,-1339.92"/>
</g>
<!-- M_DH_3_1 -->
<g id="node9" class="node">
<title>M_DH_3_1</title>
<ellipse fill="none" stroke="black" cx="3003" cy="-1016.86" rx="120.42" ry="37.45"/>
<text text-anchor="middle" x="3003" y="-1028.16" font-family="Times New Roman,serif" font-size="14.00">Interpret data (up to 100) in</text>
<text text-anchor="middle" x="3003" y="-1013.16" font-family="Times New Roman,serif" font-size="14.00">a list/tabulated form</text>
<text text-anchor="middle" x="3003" y="-998.16" font-family="Times New Roman,serif" font-size="14.00">(M_DH_3_1)</text>
</g>
<!-- M_DH_1_3&#45;&gt;M_DH_3_1 -->
<g id="edge7" class="edge">
<title>M_DH_1_3&#45;&gt;M_DH_3_1</title>
<path fill="none" stroke="black" d="M1720.77,-1525.95C1738.84,-1519.26 1758.44,-1512.74 1777,-1508.04 1890.1,-1479.45 1925.16,-1505.24 2037,-1472.04 2396.05,-1365.47 2790.24,-1144.1 2940.31,-1055.61"/>
<polygon fill="black" stroke="black" points="2942.16,-1058.58 2948.99,-1050.48 2938.6,-1052.55 2942.16,-1058.58"/>
</g>
<!-- M_DH_2_1 -->
<g id="node6" class="node">
<title>M_DH_2_1</title>
<ellipse fill="none" stroke="black" cx="1703" cy="-1291.8" rx="98.99" ry="48.17"/>
<text text-anchor="middle" x="1703" y="-1310.6" font-family="Times New Roman,serif" font-size="14.00">Read pictographs and</text>
<text text-anchor="middle" x="1703" y="-1295.6" font-family="Times New Roman,serif" font-size="14.00">interprets quantity</text>
<text text-anchor="middle" x="1703" y="-1280.6" font-family="Times New Roman,serif" font-size="14.00">information (up to 10)</text>
<text text-anchor="middle" x="1703" y="-1265.6" font-family="Times New Roman,serif" font-size="14.00">(M_DH_2_1)</text>
</g>
<!-- M_DH_1_4&#45;&gt;M_DH_2_1 -->
<g id="edge3" class="edge">
<title>M_DH_1_4&#45;&gt;M_DH_2_1</title>
<path fill="none" stroke="black" d="M1642.2,-1396.93C1650.53,-1382.66 1661.19,-1364.4 1671.25,-1347.17"/>
<polygon fill="black" stroke="black" points="1674.42,-1348.68 1676.44,-1338.28 1668.38,-1345.15 1674.42,-1348.68"/>
</g>
<!-- M_DH_1_5 -->
<g id="node5" class="node">
<title>M_DH_1_5</title>
<ellipse fill="none" stroke="black" cx="1390" cy="-1556.13" rx="125.32" ry="37.45"/>
<text text-anchor="middle" x="1390" y="-1567.43" font-family="Times New Roman,serif" font-size="14.00">Count the number of objects</text>
<text text-anchor="middle" x="1390" y="-1552.43" font-family="Times New Roman,serif" font-size="14.00">(up to 10) in each category</text>
<text text-anchor="middle" x="1390" y="-1537.43" font-family="Times New Roman,serif" font-size="14.00">(M_DH_1_5)</text>
</g>
<!-- M_DH_2_3 -->
<g id="node8" class="node">
<title>M_DH_2_3</title>
<ellipse fill="none" stroke="black" cx="1467" cy="-1149.02" rx="127.97" ry="58.88"/>
<text text-anchor="middle" x="1467" y="-1175.32" font-family="Times New Roman,serif" font-size="14.00">Recognizes that pictographs</text>
<text text-anchor="middle" x="1467" y="-1160.32" font-family="Times New Roman,serif" font-size="14.00">and lists are ways of showing</text>
<text text-anchor="middle" x="1467" y="-1145.32" font-family="Times New Roman,serif" font-size="14.00">responses to questions or</text>
<text text-anchor="middle" x="1467" y="-1130.32" font-family="Times New Roman,serif" font-size="14.00">organising information</text>
<text text-anchor="middle" x="1467" y="-1115.32" font-family="Times New Roman,serif" font-size="14.00">(M_DH_2_3)</text>
</g>
<!-- M_DH_2_1&#45;&gt;M_DH_2_3 -->
<g id="edge5" class="edge">
<title>M_DH_2_1&#45;&gt;M_DH_2_3</title>
<path fill="none" stroke="black" d="M1641.3,-1253.99C1614.2,-1237.83 1581.93,-1218.58 1552.57,-1201.06"/>
<polygon fill="black" stroke="black" points="1554.34,-1198.05 1543.96,-1195.93 1550.76,-1204.06 1554.34,-1198.05"/>
</g>
<!-- M_DH_3_4 -->
<g id="node12" class="node">
<title>M_DH_3_4</title>
<ellipse fill="none" stroke="black" cx="2453" cy="-1016.86" rx="120.42" ry="37.45"/>
<text text-anchor="middle" x="2453" y="-1028.16" font-family="Times New Roman,serif" font-size="14.00">Interpret data (up to 100) in</text>
<text text-anchor="middle" x="2453" y="-1013.16" font-family="Times New Roman,serif" font-size="14.00">a pictograph without scale.</text>
<text text-anchor="middle" x="2453" y="-998.16" font-family="Times New Roman,serif" font-size="14.00">(M_DH_3_4)</text>
</g>
<!-- M_DH_2_1&#45;&gt;M_DH_3_4 -->
<g id="edge9" class="edge">
<title>M_DH_2_1&#45;&gt;M_DH_3_4</title>
<path fill="none" stroke="black" d="M1801.79,-1288.54C2016.55,-1282.61 2510.77,-1263.04 2561,-1207.71 2598.46,-1166.45 2588.51,-1130.79 2561,-1082.33 2554.39,-1070.68 2544.74,-1060.91 2533.89,-1052.79"/>
<polygon fill="black" stroke="black" points="2535.6,-1049.72 2525.39,-1046.89 2531.61,-1055.47 2535.6,-1049.72"/>
</g>
<!-- M_DH_2_2&#45;&gt;M_DH_2_3 -->
<g id="edge6" class="edge">
<title>M_DH_2_2&#45;&gt;M_DH_2_3</title>
<path fill="none" stroke="black" d="M1467,-1254.18C1467,-1242.99 1467,-1230.32 1467,-1217.75"/>
<polygon fill="black" stroke="black" points="1470.5,-1217.73 1467,-1207.73 1463.5,-1217.73 1470.5,-1217.73"/>
</g>
<!-- M_DH_4_5 -->
<g id="node18" class="node">
<title>M_DH_4_5</title>
<ellipse fill="none" stroke="black" cx="2171" cy="-1149.02" rx="118.59" ry="26.74"/>
<text text-anchor="middle" x="2171" y="-1152.82" font-family="Times New Roman,serif" font-size="14.00">Gather information through</text>
<text text-anchor="middle" x="2171" y="-1137.82" font-family="Times New Roman,serif" font-size="14.00">interview. (M_DH_4_5)</text>
</g>
<!-- M_DH_2_2&#45;&gt;M_DH_4_5 -->
<g id="edge15" class="edge">
<title>M_DH_2_2&#45;&gt;M_DH_4_5</title>
<path fill="none" stroke="black" d="M1536.73,-1261.26C1555.36,-1254.45 1575.69,-1247.96 1595,-1243.71 1788.79,-1201.07 1847.64,-1256.37 2040,-1207.71 2066.36,-1201.04 2094.12,-1189.54 2117.27,-1178.54"/>
<polygon fill="black" stroke="black" points="2119.08,-1181.55 2126.56,-1174.04 2116.03,-1175.25 2119.08,-1181.55"/>
</g>
<!-- M_DH_5_1 -->
<g id="node21" class="node">
<title>M_DH_5_1</title>
<ellipse fill="none" stroke="black" cx="143" cy="-892.3" rx="126.64" ry="48.17"/>
<text text-anchor="middle" x="143" y="-911.1" font-family="Times New Roman,serif" font-size="14.00">Identify day to day situations</text>
<text text-anchor="middle" x="143" y="-896.1" font-family="Times New Roman,serif" font-size="14.00">which need collecting,</text>
<text text-anchor="middle" x="143" y="-881.1" font-family="Times New Roman,serif" font-size="14.00">representing and interpreting</text>
<text text-anchor="middle" x="143" y="-866.1" font-family="Times New Roman,serif" font-size="14.00">data (M_DH_5_1)</text>
</g>
<!-- M_DH_2_3&#45;&gt;M_DH_5_1 -->
<g id="edge21" class="edge">
<title>M_DH_2_3&#45;&gt;M_DH_5_1</title>
<path fill="none" stroke="black" d="M1339.33,-1144.52C1117.66,-1135.09 649.79,-1100.21 279,-971.38 256.27,-963.48 233.03,-951.73 212.33,-939.73"/>
<polygon fill="black" stroke="black" points="214.02,-936.66 203.63,-934.58 210.45,-942.69 214.02,-936.66"/>
</g>
<!-- M_DH_4_1 -->
<g id="node14" class="node">
<title>M_DH_4_1</title>
<ellipse fill="none" stroke="black" cx="3009" cy="-892.3" rx="126.64" ry="26.74"/>
<text text-anchor="middle" x="3009" y="-896.1" font-family="Times New Roman,serif" font-size="14.00">Represent data (up to 100) in</text>
<text text-anchor="middle" x="3009" y="-881.1" font-family="Times New Roman,serif" font-size="14.00">list form. (M_DH_4_1)</text>
</g>
<!-- M_DH_3_1&#45;&gt;M_DH_4_1 -->
<g id="edge11" class="edge">
<title>M_DH_3_1&#45;&gt;M_DH_4_1</title>
<path fill="none" stroke="black" d="M3004.8,-979.08C3005.56,-963.5 3006.45,-945.39 3007.21,-929.83"/>
<polygon fill="black" stroke="black" points="3010.72,-929.69 3007.72,-919.53 3003.73,-929.35 3010.72,-929.69"/>
</g>
<!-- M_DH_5_3 -->
<g id="node23" class="node">
<title>M_DH_5_3</title>
<ellipse fill="none" stroke="black" cx="881" cy="-892.3" rx="105.22" ry="37.45"/>
<text text-anchor="middle" x="881" y="-903.6" font-family="Times New Roman,serif" font-size="14.00">Represent and interpret</text>
<text text-anchor="middle" x="881" y="-888.6" font-family="Times New Roman,serif" font-size="14.00">information using tables</text>
<text text-anchor="middle" x="881" y="-873.6" font-family="Times New Roman,serif" font-size="14.00">(M_DH_5_3)</text>
</g>
<!-- M_DH_3_1&#45;&gt;M_DH_5_3 -->
<g id="edge23" class="edge">
<title>M_DH_3_1&#45;&gt;M_DH_5_3</title>
<path fill="none" stroke="black" d="M2921.47,-989.28C2905.87,-985.2 2889.55,-981.61 2874,-979.38 2782.27,-966.21 2132.6,-974.94 2040,-971.38 1655.29,-956.59 1199.84,-920.43 993.09,-903.01"/>
<polygon fill="black" stroke="black" points="993.09,-899.49 982.83,-902.14 992.5,-906.47 993.09,-899.49"/>
</g>
<!-- M_DH_3_2 -->
<g id="node10" class="node">
<title>M_DH_3_2</title>
<ellipse fill="none" stroke="black" cx="2430" cy="-1149.02" rx="122.16" ry="26.74"/>
<text text-anchor="middle" x="2430" y="-1152.82" font-family="Times New Roman,serif" font-size="14.00">Interpret data (up to 10) in a</text>
<text text-anchor="middle" x="2430" y="-1137.82" font-family="Times New Roman,serif" font-size="14.00">tally form. (M_DH_3_2)</text>
</g>
<!-- M_DH_3_3 -->
<g id="node11" class="node">
<title>M_DH_3_3</title>
<ellipse fill="none" stroke="black" cx="2184" cy="-1016.86" rx="120.42" ry="26.74"/>
<text text-anchor="middle" x="2184" y="-1020.66" font-family="Times New Roman,serif" font-size="14.00">Interpret data (up to 100) in</text>
<text text-anchor="middle" x="2184" y="-1005.66" font-family="Times New Roman,serif" font-size="14.00">a tally form. (M_DH_3_3)</text>
</g>
<!-- M_DH_3_2&#45;&gt;M_DH_3_3 -->
<g id="edge8" class="edge">
<title>M_DH_3_2&#45;&gt;M_DH_3_3</title>
<path fill="none" stroke="black" d="M2384.59,-1124C2343.38,-1102.19 2282.51,-1069.98 2238.65,-1046.77"/>
<polygon fill="black" stroke="black" points="2240.03,-1043.55 2229.56,-1041.96 2236.76,-1049.73 2240.03,-1043.55"/>
</g>
<!-- M_DH_4_2 -->
<g id="node15" class="node">
<title>M_DH_4_2</title>
<ellipse fill="none" stroke="black" cx="2728" cy="-1016.86" rx="137.36" ry="26.74"/>
<text text-anchor="middle" x="2728" y="-1020.66" font-family="Times New Roman,serif" font-size="14.00">Represent data (up to 100) in</text>
<text text-anchor="middle" x="2728" y="-1005.66" font-family="Times New Roman,serif" font-size="14.00">a tally mark table. (M_DH_4_2)</text>
</g>
<!-- M_DH_3_2&#45;&gt;M_DH_4_2 -->
<g id="edge12" class="edge">
<title>M_DH_3_2&#45;&gt;M_DH_4_2</title>
<path fill="none" stroke="black" d="M2483.28,-1124.75C2533.97,-1102.61 2610.31,-1069.26 2664.22,-1045.72"/>
<polygon fill="black" stroke="black" points="2665.91,-1048.79 2673.68,-1041.58 2663.11,-1042.38 2665.91,-1048.79"/>
</g>
<!-- M_DH_5_2 -->
<g id="node22" class="node">
<title>M_DH_5_2</title>
<ellipse fill="none" stroke="black" cx="413" cy="-892.3" rx="125.32" ry="37.45"/>
<text text-anchor="middle" x="413" y="-903.6" font-family="Times New Roman,serif" font-size="14.00">Represent and interpret</text>
<text text-anchor="middle" x="413" y="-888.6" font-family="Times New Roman,serif" font-size="14.00">information using tally charts</text>
<text text-anchor="middle" x="413" y="-873.6" font-family="Times New Roman,serif" font-size="14.00">(M_DH_5_2)</text>
</g>
<!-- M_DH_3_2&#45;&gt;M_DH_5_2 -->
<g id="edge22" class="edge">
<title>M_DH_3_2&#45;&gt;M_DH_5_2</title>
<path fill="none" stroke="black" d="M2391.24,-1123.38C2366,-1108.68 2331.79,-1091.2 2299,-1082.33 2110.7,-1031.43 733.61,-1028.17 547,-971.38 519.13,-962.9 490.89,-947.64 467.56,-932.85"/>
<polygon fill="black" stroke="black" points="469.17,-929.72 458.88,-927.22 465.36,-935.6 469.17,-929.72"/>
</g>
<!-- M_DH_3_5 -->
<g id="node13" class="node">
<title>M_DH_3_5</title>
<ellipse fill="none" stroke="black" cx="2446" cy="-892.3" rx="122.16" ry="37.45"/>
<text text-anchor="middle" x="2446" y="-903.6" font-family="Times New Roman,serif" font-size="14.00">Interpret data (up to 100) in</text>
<text text-anchor="middle" x="2446" y="-888.6" font-family="Times New Roman,serif" font-size="14.00">a pictograph with scale (1:5,</text>
<text text-anchor="middle" x="2446" y="-873.6" font-family="Times New Roman,serif" font-size="14.00">1:10) (M_DH_3_5)</text>
</g>
<!-- M_DH_3_3&#45;&gt;M_DH_3_5 -->
<g id="edge10" class="edge">
<title>M_DH_3_3&#45;&gt;M_DH_3_5</title>
<path fill="none" stroke="black" d="M2254.41,-994.98C2274.33,-988.26 2295.81,-980.24 2315,-971.38 2339.41,-960.11 2365.06,-945.5 2387.13,-931.97"/>
<polygon fill="black" stroke="black" points="2389.06,-934.89 2395.72,-926.65 2385.37,-928.94 2389.06,-934.89"/>
</g>
<!-- M_DH_4_3 -->
<g id="node16" class="node">
<title>M_DH_4_3</title>
<ellipse fill="none" stroke="black" cx="2179" cy="-892.3" rx="126.64" ry="37.45"/>
<text text-anchor="middle" x="2179" y="-903.6" font-family="Times New Roman,serif" font-size="14.00">Represent data (up to 100) in</text>
<text text-anchor="middle" x="2179" y="-888.6" font-family="Times New Roman,serif" font-size="14.00">a pictograph without scale.</text>
<text text-anchor="middle" x="2179" y="-873.6" font-family="Times New Roman,serif" font-size="14.00">(M_DH_4_3)</text>
</g>
<!-- M_DH_3_3&#45;&gt;M_DH_4_3 -->
<g id="edge13" class="edge">
<title>M_DH_3_3&#45;&gt;M_DH_4_3</title>
<path fill="none" stroke="black" d="M2182.94,-989.86C2182.35,-975.43 2181.6,-957.04 2180.91,-940.19"/>
<polygon fill="black" stroke="black" points="2184.4,-939.79 2180.5,-929.94 2177.41,-940.08 2184.4,-939.79"/>
</g>
<!-- M_DH_7_1 -->
<g id="node26" class="node">
<title>M_DH_7_1</title>
<ellipse fill="none" stroke="black" cx="657" cy="-892.3" rx="101.23" ry="37.45"/>
<text text-anchor="middle" x="657" y="-903.6" font-family="Times New Roman,serif" font-size="14.00">Interpret information</text>
<text text-anchor="middle" x="657" y="-888.6" font-family="Times New Roman,serif" font-size="14.00">presented in vertial bar</text>
<text text-anchor="middle" x="657" y="-873.6" font-family="Times New Roman,serif" font-size="14.00">graphs (M_DH_7_1)</text>
</g>
<!-- M_DH_3_3&#45;&gt;M_DH_7_1 -->
<g id="edge27" class="edge">
<title>M_DH_3_3&#45;&gt;M_DH_7_1</title>
<path fill="none" stroke="black" d="M2065.32,-1012.05C1856.3,-1005.36 1408.84,-991.08 1031,-979.38 1001.67,-978.47 794.82,-980.72 767,-971.38 743.4,-963.46 720.44,-948.66 701.66,-934.06"/>
<polygon fill="black" stroke="black" points="703.59,-931.12 693.6,-927.61 699.22,-936.59 703.59,-931.12"/>
</g>
<!-- M_DH_4_4 -->
<g id="node17" class="node">
<title>M_DH_4_4</title>
<ellipse fill="none" stroke="black" cx="2715" cy="-892.3" rx="128.89" ry="37.45"/>
<text text-anchor="middle" x="2715" y="-903.6" font-family="Times New Roman,serif" font-size="14.00">Represent data (up to 100) as</text>
<text text-anchor="middle" x="2715" y="-888.6" font-family="Times New Roman,serif" font-size="14.00">a pictograph with scale (1:5,</text>
<text text-anchor="middle" x="2715" y="-873.6" font-family="Times New Roman,serif" font-size="14.00">1:10) (M_DH_4_4)</text>
</g>
<!-- M_DH_3_4&#45;&gt;M_DH_4_4 -->
<g id="edge14" class="edge">
<title>M_DH_3_4&#45;&gt;M_DH_4_4</title>
<path fill="none" stroke="black" d="M2533.85,-989.11C2548.39,-983.67 2563.28,-977.67 2577,-971.38 2602.41,-959.74 2629.37,-945.05 2652.65,-931.56"/>
<polygon fill="black" stroke="black" points="2654.52,-934.52 2661.39,-926.46 2650.99,-928.48 2654.52,-934.52"/>
</g>
<!-- M_DH_3_4&#45;&gt;M_DH_7_1 -->
<g id="edge28" class="edge">
<title>M_DH_3_4&#45;&gt;M_DH_7_1</title>
<path fill="none" stroke="black" d="M2368.16,-990.14C2350.11,-985.69 2331.06,-981.74 2313,-979.38 2270.42,-973.81 807.88,-984.53 767,-971.38 743.01,-963.66 719.74,-948.63 700.84,-933.8"/>
<polygon fill="black" stroke="black" points="702.99,-931.04 693.02,-927.48 698.6,-936.49 702.99,-931.04"/>
</g>
<!-- M_DH_4_6 -->
<g id="node19" class="node">
<title>M_DH_4_6</title>
<ellipse fill="none" stroke="black" cx="2789" cy="-749.52" rx="132.46" ry="58.88"/>
<text text-anchor="middle" x="2789" y="-775.82" font-family="Times New Roman,serif" font-size="14.00">Reflect and compare which</text>
<text text-anchor="middle" x="2789" y="-760.82" font-family="Times New Roman,serif" font-size="14.00">method of data representation</text>
<text text-anchor="middle" x="2789" y="-745.82" font-family="Times New Roman,serif" font-size="14.00">(list, tally, pictograph) is</text>
<text text-anchor="middle" x="2789" y="-730.82" font-family="Times New Roman,serif" font-size="14.00">better for which data and why.</text>
<text text-anchor="middle" x="2789" y="-715.82" font-family="Times New Roman,serif" font-size="14.00">(M_DH_4_6)</text>
</g>
<!-- M_DH_4_1&#45;&gt;M_DH_4_6 -->
<g id="edge16" class="edge">
<title>M_DH_4_1&#45;&gt;M_DH_4_6</title>
<path fill="none" stroke="black" d="M2970.43,-866.61C2943.28,-849.24 2905.9,-825.32 2872.12,-803.71"/>
<polygon fill="black" stroke="black" points="2873.93,-800.71 2863.62,-798.27 2870.15,-806.61 2873.93,-800.71"/>
</g>
<!-- M_DH_4_2&#45;&gt;M_DH_4_6 -->
<g id="edge17" class="edge">
<title>M_DH_4_2&#45;&gt;M_DH_4_6</title>
<path fill="none" stroke="black" d="M2821.92,-997.26C2834.12,-990.97 2845.1,-982.58 2853,-971.38 2885.58,-925.2 2869.68,-898.21 2853,-844.21 2849.77,-833.77 2844.94,-823.44 2839.34,-813.69"/>
<polygon fill="black" stroke="black" points="2842.19,-811.63 2834.01,-804.89 2836.2,-815.26 2842.19,-811.63"/>
</g>
<!-- M_DH_4_3&#45;&gt;M_DH_4_6 -->
<g id="edge18" class="edge">
<title>M_DH_4_3&#45;&gt;M_DH_4_6</title>
<path fill="none" stroke="black" d="M2256.1,-862.53C2275.19,-855.99 2295.7,-849.43 2315,-844.21 2428.4,-813.53 2559.58,-788.38 2655.15,-771.89"/>
<polygon fill="black" stroke="black" points="2655.89,-775.32 2665.16,-770.17 2654.71,-768.42 2655.89,-775.32"/>
</g>
<!-- M_DH_7_3 -->
<g id="node28" class="node">
<title>M_DH_7_3</title>
<ellipse fill="none" stroke="black" cx="866" cy="-614.36" rx="120.42" ry="37.45"/>
<text text-anchor="middle" x="866" y="-625.66" font-family="Times New Roman,serif" font-size="14.00">Compare the need for a</text>
<text text-anchor="middle" x="866" y="-610.66" font-family="Times New Roman,serif" font-size="14.00">pictograph versus a vertical</text>
<text text-anchor="middle" x="866" y="-595.66" font-family="Times New Roman,serif" font-size="14.00">bar graph (M_DH_7_3)</text>
</g>
<!-- M_DH_4_3&#45;&gt;M_DH_7_3 -->
<g id="edge30" class="edge">
<title>M_DH_4_3&#45;&gt;M_DH_7_3</title>
<path fill="none" stroke="black" d="M2057.05,-881.8C1839.46,-862.25 1372.06,-808.3 998,-682.83 974.83,-675.06 950.7,-663.77 929.49,-652.65"/>
<polygon fill="black" stroke="black" points="931.07,-649.52 920.6,-647.9 927.77,-655.7 931.07,-649.52"/>
</g>
<!-- M_DH_9_1 -->
<g id="node31" class="node">
<title>M_DH_9_1</title>
<ellipse fill="none" stroke="black" cx="1923" cy="-614.36" rx="104.8" ry="37.45"/>
<text text-anchor="middle" x="1923" y="-625.66" font-family="Times New Roman,serif" font-size="14.00">Represent and interpret</text>
<text text-anchor="middle" x="1923" y="-610.66" font-family="Times New Roman,serif" font-size="14.00">pictographs with 2 or 3</text>
<text text-anchor="middle" x="1923" y="-595.66" font-family="Times New Roman,serif" font-size="14.00">attributes (M_DH_9_1)</text>
</g>
<!-- M_DH_4_3&#45;&gt;M_DH_9_1 -->
<g id="edge34" class="edge">
<title>M_DH_4_3&#45;&gt;M_DH_9_1</title>
<path fill="none" stroke="black" d="M2146.32,-856.07C2099.33,-805.42 2012.8,-712.15 1962.36,-657.78"/>
<polygon fill="black" stroke="black" points="1964.86,-655.32 1955.49,-650.37 1959.72,-660.09 1964.86,-655.32"/>
</g>
<!-- M_DH_4_4&#45;&gt;M_DH_4_6 -->
<g id="edge19" class="edge">
<title>M_DH_4_4&#45;&gt;M_DH_4_6</title>
<path fill="none" stroke="black" d="M2734.06,-855.04C2740.32,-843.13 2747.49,-829.49 2754.53,-816.09"/>
<polygon fill="black" stroke="black" points="2757.82,-817.35 2759.38,-806.87 2751.63,-814.1 2757.82,-817.35"/>
</g>
<!-- M_DH_4_4&#45;&gt;M_DH_9_1 -->
<g id="edge35" class="edge">
<title>M_DH_4_4&#45;&gt;M_DH_9_1</title>
<path fill="none" stroke="black" d="M2633.8,-863.04C2615.18,-856.71 2595.44,-850.13 2577,-844.21 2547.34,-834.7 2068.6,-695.18 2040,-682.83 2020.3,-674.33 1999.73,-663.28 1981.43,-652.59"/>
<polygon fill="black" stroke="black" points="1983.03,-649.47 1972.64,-647.39 1979.46,-655.5 1983.03,-649.47"/>
</g>
<!-- M_DH_4_7 -->
<g id="node20" class="node">
<title>M_DH_4_7</title>
<ellipse fill="none" stroke="black" cx="2789" cy="-614.36" rx="135.53" ry="37.45"/>
<text text-anchor="middle" x="2789" y="-625.66" font-family="Times New Roman,serif" font-size="14.00">Interpret data (up to 100) and</text>
<text text-anchor="middle" x="2789" y="-610.66" font-family="Times New Roman,serif" font-size="14.00">answer questions based upon it</text>
<text text-anchor="middle" x="2789" y="-595.66" font-family="Times New Roman,serif" font-size="14.00">(word problems) (M_DH_4_7)</text>
</g>
<!-- M_DH_4_6&#45;&gt;M_DH_4_7 -->
<g id="edge20" class="edge">
<title>M_DH_4_6&#45;&gt;M_DH_4_7</title>
<path fill="none" stroke="black" d="M2789,-690.5C2789,-681.03 2789,-671.32 2789,-662.16"/>
<polygon fill="black" stroke="black" points="2792.5,-662.1 2789,-652.1 2785.5,-662.1 2792.5,-662.1"/>
</g>
<!-- M_DH_6_1 -->
<g id="node24" class="node">
<title>M_DH_6_1</title>
<ellipse fill="none" stroke="black" cx="529" cy="-749.52" rx="122.16" ry="26.74"/>
<text text-anchor="middle" x="529" y="-753.32" font-family="Times New Roman,serif" font-size="14.00">Represent and interpret data</text>
<text text-anchor="middle" x="529" y="-738.32" font-family="Times New Roman,serif" font-size="14.00">frequency &#160;(M_DH_6_1)</text>
</g>
<!-- M_DH_5_2&#45;&gt;M_DH_6_1 -->
<g id="edge24" class="edge">
<title>M_DH_5_2&#45;&gt;M_DH_6_1</title>
<path fill="none" stroke="black" d="M442.27,-855.77C460.36,-833.82 483.45,-805.81 501.25,-784.2"/>
<polygon fill="black" stroke="black" points="504.13,-786.2 507.79,-776.26 498.73,-781.75 504.13,-786.2"/>
</g>
<!-- M_DH_5_3&#45;&gt;M_DH_6_1 -->
<g id="edge25" class="edge">
<title>M_DH_5_3&#45;&gt;M_DH_6_1</title>
<path fill="none" stroke="black" d="M813.86,-863.35C798.48,-857.01 782.19,-850.34 767,-844.21 709.79,-821.14 644.58,-795.51 596.9,-776.91"/>
<polygon fill="black" stroke="black" points="597.89,-773.54 587.3,-773.16 595.35,-780.06 597.89,-773.54"/>
</g>
<!-- M_DH_8_1 -->
<g id="node29" class="node">
<title>M_DH_8_1</title>
<ellipse fill="none" stroke="black" cx="1678" cy="-614.36" rx="122.16" ry="37.45"/>
<text text-anchor="middle" x="1678" y="-625.66" font-family="Times New Roman,serif" font-size="14.00">Represent and interpret data</text>
<text text-anchor="middle" x="1678" y="-610.66" font-family="Times New Roman,serif" font-size="14.00">from tables with 2 or 3</text>
<text text-anchor="middle" x="1678" y="-595.66" font-family="Times New Roman,serif" font-size="14.00">attributes (M_DH_8_1)</text>
</g>
<!-- M_DH_5_3&#45;&gt;M_DH_8_1 -->
<g id="edge32" class="edge">
<title>M_DH_5_3&#45;&gt;M_DH_8_1</title>
<path fill="none" stroke="black" d="M965.7,-869.82C1093.83,-836.22 1343.57,-766.33 1547,-682.83 1568.54,-673.99 1591.33,-662.9 1611.75,-652.29"/>
<polygon fill="black" stroke="black" points="1613.42,-655.36 1620.65,-647.62 1610.17,-649.17 1613.42,-655.36"/>
</g>
<!-- M_DH_6_2 -->
<g id="node25" class="node">
<title>M_DH_6_2</title>
<ellipse fill="none" stroke="black" cx="620" cy="-614.36" rx="107.46" ry="26.74"/>
<text text-anchor="middle" x="620" y="-618.16" font-family="Times New Roman,serif" font-size="14.00">Infer patterns from data</text>
<text text-anchor="middle" x="620" y="-603.16" font-family="Times New Roman,serif" font-size="14.00">frequency (M_DH_6_2)</text>
</g>
<!-- M_DH_6_1&#45;&gt;M_DH_6_2 -->
<g id="edge26" class="edge">
<title>M_DH_6_1&#45;&gt;M_DH_6_2</title>
<path fill="none" stroke="black" d="M546.55,-722.85C560.83,-701.94 581.13,-672.24 596.77,-649.36"/>
<polygon fill="black" stroke="black" points="599.76,-651.18 602.51,-640.95 593.98,-647.23 599.76,-651.18"/>
</g>
<!-- M_DH_11_1 -->
<g id="node34" class="node">
<title>M_DH_11_1</title>
<ellipse fill="none" stroke="black" cx="866" cy="-360.24" rx="120.42" ry="48.17"/>
<text text-anchor="middle" x="866" y="-379.04" font-family="Times New Roman,serif" font-size="14.00">Compute frequency of data</text>
<text text-anchor="middle" x="866" y="-364.04" font-family="Times New Roman,serif" font-size="14.00">presented (tables,</text>
<text text-anchor="middle" x="866" y="-349.04" font-family="Times New Roman,serif" font-size="14.00">pictographs, bar graphs)</text>
<text text-anchor="middle" x="866" y="-334.04" font-family="Times New Roman,serif" font-size="14.00">(M_DH_11_1)</text>
</g>
<!-- M_DH_6_1&#45;&gt;M_DH_11_1 -->
<g id="edge37" class="edge">
<title>M_DH_6_1&#45;&gt;M_DH_11_1</title>
<path fill="none" stroke="black" d="M515.91,-722.78C499.23,-686.05 475.75,-617.65 504,-568.88 558.08,-475.52 671.74,-420.51 757.36,-390.83"/>
<polygon fill="black" stroke="black" points="758.52,-394.13 766.87,-387.6 756.27,-387.5 758.52,-394.13"/>
</g>
<!-- M_DH_7_2 -->
<g id="node27" class="node">
<title>M_DH_7_2</title>
<ellipse fill="none" stroke="black" cx="850" cy="-749.52" rx="136.44" ry="26.74"/>
<text text-anchor="middle" x="850" y="-753.32" font-family="Times New Roman,serif" font-size="14.00">Represent information using</text>
<text text-anchor="middle" x="850" y="-738.32" font-family="Times New Roman,serif" font-size="14.00">vertial bar graphs (M_DH_7_2)</text>
</g>
<!-- M_DH_7_1&#45;&gt;M_DH_7_2 -->
<g id="edge29" class="edge">
<title>M_DH_7_1&#45;&gt;M_DH_7_2</title>
<path fill="none" stroke="black" d="M701.76,-858.65C733.55,-835.46 775.98,-804.51 807.3,-781.67"/>
<polygon fill="black" stroke="black" points="809.4,-784.47 815.41,-775.75 805.27,-778.82 809.4,-784.47"/>
</g>
<!-- M_DH_7_2&#45;&gt;M_DH_7_3 -->
<g id="edge31" class="edge">
<title>M_DH_7_2&#45;&gt;M_DH_7_3</title>
<path fill="none" stroke="black" d="M853.12,-722.53C855.19,-705.31 857.97,-682.22 860.41,-661.89"/>
<polygon fill="black" stroke="black" points="863.9,-662.21 861.61,-651.86 856.95,-661.37 863.9,-662.21"/>
</g>
<!-- M_DH_9_2 -->
<g id="node32" class="node">
<title>M_DH_9_2</title>
<ellipse fill="none" stroke="black" cx="1418" cy="-614.36" rx="119.5" ry="37.45"/>
<text text-anchor="middle" x="1418" y="-625.66" font-family="Times New Roman,serif" font-size="14.00">Represent and interpret bar</text>
<text text-anchor="middle" x="1418" y="-610.66" font-family="Times New Roman,serif" font-size="14.00">charts with 2 or 3 attributes</text>
<text text-anchor="middle" x="1418" y="-595.66" font-family="Times New Roman,serif" font-size="14.00">(M_DH_9_2)</text>
</g>
<!-- M_DH_7_2&#45;&gt;M_DH_9_2 -->
<g id="edge36" class="edge">
<title>M_DH_7_2&#45;&gt;M_DH_9_2</title>
<path fill="none" stroke="black" d="M978.9,-740.58C1067.79,-732.38 1187.71,-715.86 1289,-682.83 1311.82,-675.39 1335.45,-664.19 1356.16,-653.04"/>
<polygon fill="black" stroke="black" points="1358.07,-655.98 1365.15,-648.1 1354.7,-649.85 1358.07,-655.98"/>
</g>
<!-- M_DH_8_2 -->
<g id="node30" class="node">
<title>M_DH_8_2</title>
<ellipse fill="none" stroke="black" cx="1490" cy="-503.4" rx="130.22" ry="37.45"/>
<text text-anchor="middle" x="1490" y="-514.7" font-family="Times New Roman,serif" font-size="14.00">Compare quantity information</text>
<text text-anchor="middle" x="1490" y="-499.7" font-family="Times New Roman,serif" font-size="14.00">across attributes in a table.</text>
<text text-anchor="middle" x="1490" y="-484.7" font-family="Times New Roman,serif" font-size="14.00">(M_DH_8_2)</text>
</g>
<!-- M_DH_8_1&#45;&gt;M_DH_8_2 -->
<g id="edge33" class="edge">
<title>M_DH_8_1&#45;&gt;M_DH_8_2</title>
<path fill="none" stroke="black" d="M1622.1,-580.96C1601.17,-568.83 1577.21,-554.95 1555.49,-542.36"/>
<polygon fill="black" stroke="black" points="1557.06,-539.22 1546.66,-537.24 1553.55,-545.28 1557.06,-539.22"/>
</g>
<!-- M_DH_11_2 -->
<g id="node35" class="node">
<title>M_DH_11_2</title>
<ellipse fill="none" stroke="black" cx="1145" cy="-360.24" rx="137.36" ry="58.88"/>
<text text-anchor="middle" x="1145" y="-386.54" font-family="Times New Roman,serif" font-size="14.00">Compare and draw conclusions</text>
<text text-anchor="middle" x="1145" y="-371.54" font-family="Times New Roman,serif" font-size="14.00">based on data presented</text>
<text text-anchor="middle" x="1145" y="-356.54" font-family="Times New Roman,serif" font-size="14.00">(tables, pictographs, pie&#45;</text>
<text text-anchor="middle" x="1145" y="-341.54" font-family="Times New Roman,serif" font-size="14.00">charts, bar graphs)</text>
<text text-anchor="middle" x="1145" y="-326.54" font-family="Times New Roman,serif" font-size="14.00">(M_DH_11_2)</text>
</g>
<!-- M_DH_8_2&#45;&gt;M_DH_11_2 -->
<g id="edge39" class="edge">
<title>M_DH_8_2&#45;&gt;M_DH_11_2</title>
<path fill="none" stroke="black" d="M1416.41,-472.29C1368.71,-452.77 1305.78,-427.02 1252.52,-405.23"/>
<polygon fill="black" stroke="black" points="1253.61,-401.9 1243.03,-401.35 1250.96,-408.38 1253.61,-401.9"/>
</g>
<!-- M_DH_10_1 -->
<g id="node33" class="node">
<title>M_DH_10_1</title>
<ellipse fill="none" stroke="black" cx="1145" cy="-614.36" rx="135.11" ry="37.45"/>
<text text-anchor="middle" x="1145" y="-625.66" font-family="Times New Roman,serif" font-size="14.00">Represent and interpret</text>
<text text-anchor="middle" x="1145" y="-610.66" font-family="Times New Roman,serif" font-size="14.00">information as pie&#45;charts with</text>
<text text-anchor="middle" x="1145" y="-595.66" font-family="Times New Roman,serif" font-size="14.00">2 or 3 attributes (M_DH_10_1)</text>
</g>
<!-- M_DH_10_1&#45;&gt;M_DH_11_2 -->
<g id="edge38" class="edge">
<title>M_DH_10_1&#45;&gt;M_DH_11_2</title>
<path fill="none" stroke="black" d="M1145,-576.7C1145,-538.14 1145,-476.61 1145,-429.15"/>
<polygon fill="black" stroke="black" points="1148.5,-428.95 1145,-418.95 1141.5,-428.95 1148.5,-428.95"/>
</g>
<!-- M_DH_11_3 -->
<g id="node36" class="node">
<title>M_DH_11_3</title>
<ellipse fill="none" stroke="black" cx="878" cy="-206.86" rx="132.46" ry="58.88"/>
<text text-anchor="middle" x="878" y="-233.16" font-family="Times New Roman,serif" font-size="14.00">Reflect and compare which</text>
<text text-anchor="middle" x="878" y="-218.16" font-family="Times New Roman,serif" font-size="14.00">method of data representation</text>
<text text-anchor="middle" x="878" y="-203.16" font-family="Times New Roman,serif" font-size="14.00">(bar graph, pie&#45;chart) is</text>
<text text-anchor="middle" x="878" y="-188.16" font-family="Times New Roman,serif" font-size="14.00">better for which data and why.</text>
<text text-anchor="middle" x="878" y="-173.16" font-family="Times New Roman,serif" font-size="14.00">(M_DH_11_3)</text>
</g>
<!-- M_DH_11_2&#45;&gt;M_DH_11_3 -->
<g id="edge40" class="edge">
<title>M_DH_11_2&#45;&gt;M_DH_11_3</title>
<path fill="none" stroke="black" d="M1063.44,-312.99C1033.15,-295.82 998.64,-276.25 967.66,-258.69"/>
<polygon fill="black" stroke="black" points="969.03,-255.44 958.6,-253.55 965.57,-261.53 969.03,-255.44"/>
</g>
<!-- M_DH_11_4 -->
<g id="node37" class="node">
<title>M_DH_11_4</title>
<ellipse fill="none" stroke="black" cx="1155" cy="-206.86" rx="126.64" ry="48.17"/>
<text text-anchor="middle" x="1155" y="-225.66" font-family="Times New Roman,serif" font-size="14.00">Represent event data in a</text>
<text text-anchor="middle" x="1155" y="-210.66" font-family="Times New Roman,serif" font-size="14.00">chart to make decisions</text>
<text text-anchor="middle" x="1155" y="-195.66" font-family="Times New Roman,serif" font-size="14.00">fluently based on information</text>
<text text-anchor="middle" x="1155" y="-180.66" font-family="Times New Roman,serif" font-size="14.00">presented (M_DH_11_4)</text>
</g>
<!-- M_DH_11_2&#45;&gt;M_DH_11_4 -->
<g id="edge41" class="edge">
<title>M_DH_11_2&#45;&gt;M_DH_11_4</title>
<path fill="none" stroke="black" d="M1148.84,-301.14C1149.61,-289.4 1150.43,-277.07 1151.2,-265.35"/>
<polygon fill="black" stroke="black" points="1154.7,-265.46 1151.87,-255.25 1147.72,-265 1154.7,-265.46"/>
</g>
<!-- M_DH_11_5 -->
<g id="node38" class="node">
<title>M_DH_11_5</title>
<ellipse fill="none" stroke="black" cx="1155" cy="-64.08" rx="118.17" ry="48.17"/>
<text text-anchor="middle" x="1155" y="-82.88" font-family="Times New Roman,serif" font-size="14.00">Use data handling to find</text>
<text text-anchor="middle" x="1155" y="-67.88" font-family="Times New Roman,serif" font-size="14.00">solutions to real&#45;life</text>
<text text-anchor="middle" x="1155" y="-52.88" font-family="Times New Roman,serif" font-size="14.00">situations (word problems)</text>
<text text-anchor="middle" x="1155" y="-37.88" font-family="Times New Roman,serif" font-size="14.00">(M_DH_11_5)</text>
</g>
<!-- M_DH_11_4&#45;&gt;M_DH_11_5 -->
<g id="edge42" class="edge">
<title>M_DH_11_4&#45;&gt;M_DH_11_5</title>
<path fill="none" stroke="black" d="M1155,-158.59C1155,-147.1 1155,-134.68 1155,-122.77"/>
<polygon fill="black" stroke="black" points="1158.5,-122.47 1155,-112.47 1151.5,-122.47 1158.5,-122.47"/>
</g>
</g>
</svg>
