<?xml version="1.0" encoding="UTF-8" standalone="no"?>
<!DOCTYPE svg PUBLIC "-//W3C//DTD SVG 1.1//EN"
 "http://www.w3.org/Graphics/SVG/1.1/DTD/svg11.dtd">
<!-- Generated by graphviz version 2.50.0 (20211204.2007)
 -->
<!-- Title: G Pages: 1 -->
<svg width="2423pt" height="1357pt"
 viewBox="0.00 0.00 2423.39 1357.30" xmlns="http://www.w3.org/2000/svg" xmlns:xlink="http://www.w3.org/1999/xlink">
<g id="graph0" class="graph" transform="scale(1 1) rotate(0) translate(4 1353.3)">
<title>G</title>
<polygon fill="white" stroke="transparent" points="-4,4 -4,-1353.3 2419.39,-1353.3 2419.39,4 -4,4"/>
<!-- M_DH_1_1 -->
<g id="node1" class="node">
<title>M_DH_1_1</title>
<ellipse fill="blue" stroke="blue" cx="896.33" cy="-1301.22" rx="120.83" ry="48.17"/>
<text text-anchor="middle" x="896.33" y="-1320.02" font-family="Times New Roman,serif" font-size="14.00">Classify objects into</text>
<text text-anchor="middle" x="896.33" y="-1305.02" font-family="Times New Roman,serif" font-size="14.00">categories based on colour,</text>
<text text-anchor="middle" x="896.33" y="-1290.02" font-family="Times New Roman,serif" font-size="14.00">shape and size (concretely)</text>
<text text-anchor="middle" x="896.33" y="-1275.02" font-family="Times New Roman,serif" font-size="14.00">(M_DH_1_1)</text>
</g>
<!-- M_DH_1_2 -->
<g id="node2" class="node">
<title>M_DH_1_2</title>
<ellipse fill="blue" stroke="blue" cx="896.33" cy="-1169.06" rx="120.83" ry="48.17"/>
<text text-anchor="middle" x="896.33" y="-1187.86" font-family="Times New Roman,serif" font-size="14.00">Classify objects into</text>
<text text-anchor="middle" x="896.33" y="-1172.86" font-family="Times New Roman,serif" font-size="14.00">categories based on colour,</text>
<text text-anchor="middle" x="896.33" y="-1157.86" font-family="Times New Roman,serif" font-size="14.00">shape and size (pictorially)</text>
<text text-anchor="middle" x="896.33" y="-1142.86" font-family="Times New Roman,serif" font-size="14.00">(M_DH_1_2)</text>
</g>
<!-- M_DH_1_1&#45;&gt;M_DH_1_2 -->
<g id="edge1" class="edge">
<title>M_DH_1_1&#45;&gt;M_DH_1_2</title>
<path fill="none" stroke="black" d="M896.33,-1252.86C896.33,-1244.59 896.33,-1235.91 896.33,-1227.41"/>
<polygon fill="black" stroke="black" points="899.83,-1227.16 896.33,-1217.16 892.83,-1227.16 899.83,-1227.16"/>
</g>
<!-- M_DH_1_3 -->
<g id="node3" class="node">
<title>M_DH_1_3</title>
<ellipse fill="blue" stroke="blue" cx="896.33" cy="-1047.5" rx="125.32" ry="37.45"/>
<text text-anchor="middle" x="896.33" y="-1058.8" font-family="Times New Roman,serif" font-size="14.00">Count the number of objects</text>
<text text-anchor="middle" x="896.33" y="-1043.8" font-family="Times New Roman,serif" font-size="14.00">(up to 10) in each category</text>
<text text-anchor="middle" x="896.33" y="-1028.8" font-family="Times New Roman,serif" font-size="14.00">(M_DH_1_3)</text>
</g>
<!-- M_DH_1_2&#45;&gt;M_DH_1_3 -->
<g id="edge2" class="edge">
<title>M_DH_1_2&#45;&gt;M_DH_1_3</title>
<path fill="none" stroke="black" d="M896.33,-1120.8C896.33,-1112.36 896.33,-1103.56 896.33,-1095.13"/>
<polygon fill="black" stroke="black" points="899.83,-1095.08 896.33,-1085.08 892.83,-1095.08 899.83,-1095.08"/>
</g>
<!-- M_DH_3_2 -->
<g id="node10" class="node">
<title>M_DH_3_2</title>
<ellipse fill="red" stroke="red" cx="896.33" cy="-925.94" rx="122.16" ry="26.74"/>
<text text-anchor="middle" x="896.33" y="-929.74" font-family="Times New Roman,serif" font-size="14.00">Interpret data (up to 10) in a</text>
<text text-anchor="middle" x="896.33" y="-914.74" font-family="Times New Roman,serif" font-size="14.00">tally form. (M_DH_3_2)</text>
</g>
<!-- M_DH_1_3&#45;&gt;M_DH_3_2 -->
<g id="edge9" class="edge">
<title>M_DH_1_3&#45;&gt;M_DH_3_2</title>
<path fill="none" stroke="black" d="M896.33,-1009.97C896.33,-995.16 896.33,-978.1 896.33,-963.3"/>
<polygon fill="black" stroke="black" points="899.83,-963 896.33,-953 892.83,-963 899.83,-963"/>
</g>
<!-- M_DH_1_4 -->
<g id="node4" class="node">
<title>M_DH_1_4</title>
<ellipse fill="blue" stroke="blue" cx="1523.33" cy="-1169.06" rx="117.26" ry="37.45"/>
<text text-anchor="middle" x="1523.33" y="-1180.36" font-family="Times New Roman,serif" font-size="14.00">Read tables and interprets</text>
<text text-anchor="middle" x="1523.33" y="-1165.36" font-family="Times New Roman,serif" font-size="14.00">quantity information (up to</text>
<text text-anchor="middle" x="1523.33" y="-1150.36" font-family="Times New Roman,serif" font-size="14.00">10) (M_DH_1_4)</text>
</g>
<!-- M_DH_1_5 -->
<g id="node5" class="node">
<title>M_DH_1_5</title>
<ellipse fill="blue" stroke="blue" cx="1192.33" cy="-1047.5" rx="141.34" ry="26.74"/>
<text text-anchor="middle" x="1192.33" y="-1051.3" font-family="Times New Roman,serif" font-size="14.00">List number of objects (up to</text>
<text text-anchor="middle" x="1192.33" y="-1036.3" font-family="Times New Roman,serif" font-size="14.00">10) in tabular form (M_DH_1_5)</text>
</g>
<!-- M_DH_1_4&#45;&gt;M_DH_1_5 -->
<g id="edge3" class="edge">
<title>M_DH_1_4&#45;&gt;M_DH_1_5</title>
<path fill="none" stroke="black" d="M1446.98,-1140.48C1392.4,-1120.76 1319.4,-1094.39 1265.55,-1074.94"/>
<polygon fill="black" stroke="black" points="1266.66,-1071.62 1256.06,-1071.52 1264.28,-1078.21 1266.66,-1071.62"/>
</g>
<!-- M_DH_2_2 -->
<g id="node7" class="node">
<title>M_DH_2_2</title>
<ellipse fill="blue" stroke="blue" cx="1523.33" cy="-1047.5" rx="119.5" ry="37.45"/>
<text text-anchor="middle" x="1523.33" y="-1058.8" font-family="Times New Roman,serif" font-size="14.00">Gather responses to simple</text>
<text text-anchor="middle" x="1523.33" y="-1043.8" font-family="Times New Roman,serif" font-size="14.00">questions and create a list</text>
<text text-anchor="middle" x="1523.33" y="-1028.8" font-family="Times New Roman,serif" font-size="14.00">(M_DH_2_2)</text>
</g>
<!-- M_DH_1_4&#45;&gt;M_DH_2_2 -->
<g id="edge5" class="edge">
<title>M_DH_1_4&#45;&gt;M_DH_2_2</title>
<path fill="none" stroke="black" d="M1523.33,-1131.53C1523.33,-1120.17 1523.33,-1107.47 1523.33,-1095.49"/>
<polygon fill="black" stroke="black" points="1526.83,-1095.2 1523.33,-1085.21 1519.83,-1095.21 1526.83,-1095.2"/>
</g>
<!-- M_DH_3_1 -->
<g id="node9" class="node">
<title>M_DH_3_1</title>
<ellipse fill="red" stroke="red" cx="1720.33" cy="-925.94" rx="120.42" ry="37.45"/>
<text text-anchor="middle" x="1720.33" y="-937.24" font-family="Times New Roman,serif" font-size="14.00">Interpret data (up to 100) in</text>
<text text-anchor="middle" x="1720.33" y="-922.24" font-family="Times New Roman,serif" font-size="14.00">a list/tabulated form</text>
<text text-anchor="middle" x="1720.33" y="-907.24" font-family="Times New Roman,serif" font-size="14.00">(M_DH_3_1)</text>
</g>
<!-- M_DH_1_4&#45;&gt;M_DH_3_1 -->
<g id="edge8" class="edge">
<title>M_DH_1_4&#45;&gt;M_DH_3_1</title>
<path fill="none" stroke="black" d="M1586.83,-1137.33C1609.78,-1123.79 1634.43,-1106.12 1652.33,-1084.97 1679.91,-1052.4 1697.88,-1006.95 1708.39,-973.15"/>
<polygon fill="black" stroke="black" points="1711.76,-974.08 1711.28,-963.5 1705.05,-972.07 1711.76,-974.08"/>
</g>
<!-- M_DH_2_1 -->
<g id="node6" class="node">
<title>M_DH_2_1</title>
<ellipse fill="blue" stroke="blue" cx="1179.33" cy="-925.94" rx="98.99" ry="48.17"/>
<text text-anchor="middle" x="1179.33" y="-944.74" font-family="Times New Roman,serif" font-size="14.00">Read pictographs and</text>
<text text-anchor="middle" x="1179.33" y="-929.74" font-family="Times New Roman,serif" font-size="14.00">interprets quantity</text>
<text text-anchor="middle" x="1179.33" y="-914.74" font-family="Times New Roman,serif" font-size="14.00">information (up to 10)</text>
<text text-anchor="middle" x="1179.33" y="-899.74" font-family="Times New Roman,serif" font-size="14.00">(M_DH_2_1)</text>
</g>
<!-- M_DH_1_5&#45;&gt;M_DH_2_1 -->
<g id="edge4" class="edge">
<title>M_DH_1_5&#45;&gt;M_DH_2_1</title>
<path fill="none" stroke="black" d="M1189.51,-1020.55C1188.34,-1009.82 1186.94,-996.92 1185.55,-984.18"/>
<polygon fill="black" stroke="black" points="1189.01,-983.6 1184.45,-974.04 1182.05,-984.36 1189.01,-983.6"/>
</g>
<!-- M_DH_2_3 -->
<g id="node8" class="node">
<title>M_DH_2_3</title>
<ellipse fill="blue" stroke="blue" cx="1447.33" cy="-783.16" rx="127.97" ry="58.88"/>
<text text-anchor="middle" x="1447.33" y="-809.46" font-family="Times New Roman,serif" font-size="14.00">Recognizes that pictographs</text>
<text text-anchor="middle" x="1447.33" y="-794.46" font-family="Times New Roman,serif" font-size="14.00">and lists are ways of showing</text>
<text text-anchor="middle" x="1447.33" y="-779.46" font-family="Times New Roman,serif" font-size="14.00">responses to questions or</text>
<text text-anchor="middle" x="1447.33" y="-764.46" font-family="Times New Roman,serif" font-size="14.00">organising information</text>
<text text-anchor="middle" x="1447.33" y="-749.46" font-family="Times New Roman,serif" font-size="14.00">(M_DH_2_3)</text>
</g>
<!-- M_DH_2_1&#45;&gt;M_DH_2_3 -->
<g id="edge6" class="edge">
<title>M_DH_2_1&#45;&gt;M_DH_2_3</title>
<path fill="none" stroke="black" d="M1245.58,-890.14C1278.59,-872.8 1319.04,-851.55 1355.03,-832.64"/>
<polygon fill="black" stroke="black" points="1356.85,-835.64 1364.08,-827.89 1353.6,-829.44 1356.85,-835.64"/>
</g>
<!-- M_DH_3_4 -->
<g id="node12" class="node">
<title>M_DH_3_4</title>
<ellipse fill="red" stroke="red" cx="621.33" cy="-783.16" rx="120.42" ry="37.45"/>
<text text-anchor="middle" x="621.33" y="-794.46" font-family="Times New Roman,serif" font-size="14.00">Interpret data (up to 100) in</text>
<text text-anchor="middle" x="621.33" y="-779.46" font-family="Times New Roman,serif" font-size="14.00">a pictograph without scale.</text>
<text text-anchor="middle" x="621.33" y="-764.46" font-family="Times New Roman,serif" font-size="14.00">(M_DH_3_4)</text>
</g>
<!-- M_DH_2_1&#45;&gt;M_DH_3_4 -->
<g id="edge11" class="edge">
<title>M_DH_2_1&#45;&gt;M_DH_3_4</title>
<path fill="none" stroke="black" d="M1099.55,-897.41C1076.46,-890.22 1051.08,-883.03 1027.33,-877.85 906.04,-851.39 869.82,-875.55 750.33,-841.85 730.63,-836.3 710.08,-828.24 691.32,-819.9"/>
<polygon fill="black" stroke="black" points="692.52,-816.6 681.97,-815.65 689.63,-822.98 692.52,-816.6"/>
</g>
<!-- M_DH_2_2&#45;&gt;M_DH_2_3 -->
<g id="edge7" class="edge">
<title>M_DH_2_2&#45;&gt;M_DH_2_3</title>
<path fill="none" stroke="black" d="M1537.83,-1010.15C1549.56,-974.96 1561.42,-920.78 1543.33,-877.85 1537.75,-864.6 1529.27,-852.29 1519.62,-841.24"/>
<polygon fill="black" stroke="black" points="1522.12,-838.79 1512.78,-833.79 1516.97,-843.52 1522.12,-838.79"/>
</g>
<!-- M_DH_4_5 -->
<g id="node18" class="node">
<title>M_DH_4_5</title>
<ellipse fill="red" stroke="red" cx="1415.33" cy="-925.94" rx="118.59" ry="26.74"/>
<text text-anchor="middle" x="1415.33" y="-929.74" font-family="Times New Roman,serif" font-size="14.00">Gather information through</text>
<text text-anchor="middle" x="1415.33" y="-914.74" font-family="Times New Roman,serif" font-size="14.00">interview. (M_DH_4_5)</text>
</g>
<!-- M_DH_2_2&#45;&gt;M_DH_4_5 -->
<g id="edge17" class="edge">
<title>M_DH_2_2&#45;&gt;M_DH_4_5</title>
<path fill="none" stroke="black" d="M1491.51,-1011.27C1476.86,-995.05 1459.57,-975.91 1445.17,-959.97"/>
<polygon fill="black" stroke="black" points="1447.66,-957.5 1438.36,-952.43 1442.46,-962.19 1447.66,-957.5"/>
</g>
<!-- M_DH_5_1 -->
<g id="node21" class="node">
<title>M_DH_5_1</title>
<ellipse fill="yellow" stroke="yellow" cx="1424.33" cy="-640.39" rx="126.64" ry="48.17"/>
<text text-anchor="middle" x="1424.33" y="-659.19" font-family="Times New Roman,serif" font-size="14.00">Identify day to day situations</text>
<text text-anchor="middle" x="1424.33" y="-644.19" font-family="Times New Roman,serif" font-size="14.00">which need collecting,</text>
<text text-anchor="middle" x="1424.33" y="-629.19" font-family="Times New Roman,serif" font-size="14.00">representing and interpreting</text>
<text text-anchor="middle" x="1424.33" y="-614.19" font-family="Times New Roman,serif" font-size="14.00">data (M_DH_5_1)</text>
</g>
<!-- M_DH_2_3&#45;&gt;M_DH_5_1 -->
<g id="edge23" class="edge">
<title>M_DH_2_3&#45;&gt;M_DH_5_1</title>
<path fill="none" stroke="black" d="M1437.91,-724.5C1436.5,-715.88 1435.05,-706.99 1433.64,-698.38"/>
<polygon fill="black" stroke="black" points="1437.08,-697.74 1432.02,-688.43 1430.17,-698.87 1437.08,-697.74"/>
</g>
<!-- M_DH_4_1 -->
<g id="node14" class="node">
<title>M_DH_4_1</title>
<ellipse fill="red" stroke="red" cx="1720.33" cy="-783.16" rx="126.64" ry="26.74"/>
<text text-anchor="middle" x="1720.33" y="-786.96" font-family="Times New Roman,serif" font-size="14.00">Represent data (up to 100) in</text>
<text text-anchor="middle" x="1720.33" y="-771.96" font-family="Times New Roman,serif" font-size="14.00">list form. (M_DH_4_1)</text>
</g>
<!-- M_DH_3_1&#45;&gt;M_DH_4_1 -->
<g id="edge13" class="edge">
<title>M_DH_3_1&#45;&gt;M_DH_4_1</title>
<path fill="none" stroke="black" d="M1720.33,-888.32C1720.33,-867.41 1720.33,-841.29 1720.33,-820.44"/>
<polygon fill="black" stroke="black" points="1723.83,-820.37 1720.33,-810.37 1716.83,-820.37 1723.83,-820.37"/>
</g>
<!-- M_DH_5_3 -->
<g id="node23" class="node">
<title>M_DH_5_3</title>
<ellipse fill="yellow" stroke="yellow" cx="1970.33" cy="-783.16" rx="105.22" ry="37.45"/>
<text text-anchor="middle" x="1970.33" y="-794.46" font-family="Times New Roman,serif" font-size="14.00">Represent and interpret</text>
<text text-anchor="middle" x="1970.33" y="-779.46" font-family="Times New Roman,serif" font-size="14.00">information using tables</text>
<text text-anchor="middle" x="1970.33" y="-764.46" font-family="Times New Roman,serif" font-size="14.00">(M_DH_5_3)</text>
</g>
<!-- M_DH_3_1&#45;&gt;M_DH_5_3 -->
<g id="edge25" class="edge">
<title>M_DH_3_1&#45;&gt;M_DH_5_3</title>
<path fill="none" stroke="black" d="M1777.37,-892.82C1815.82,-871.16 1866.6,-842.57 1906.42,-820.15"/>
<polygon fill="black" stroke="black" points="1908.26,-823.13 1915.25,-815.18 1904.82,-817.03 1908.26,-823.13"/>
</g>
<!-- M_DH_3_3 -->
<g id="node11" class="node">
<title>M_DH_3_3</title>
<ellipse fill="red" stroke="red" cx="363.33" cy="-783.16" rx="120.42" ry="26.74"/>
<text text-anchor="middle" x="363.33" y="-786.96" font-family="Times New Roman,serif" font-size="14.00">Interpret data (up to 100) in</text>
<text text-anchor="middle" x="363.33" y="-771.96" font-family="Times New Roman,serif" font-size="14.00">a tally form. (M_DH_3_3)</text>
</g>
<!-- M_DH_3_2&#45;&gt;M_DH_3_3 -->
<g id="edge10" class="edge">
<title>M_DH_3_2&#45;&gt;M_DH_3_3</title>
<path fill="none" stroke="black" d="M795.98,-910.54C713.27,-897.19 593.54,-874.46 492.33,-841.85 467.81,-833.95 441.7,-822.83 419.44,-812.45"/>
<polygon fill="black" stroke="black" points="420.68,-809.17 410.14,-808.06 417.69,-815.5 420.68,-809.17"/>
</g>
<!-- M_DH_4_2 -->
<g id="node15" class="node">
<title>M_DH_4_2</title>
<ellipse fill="red" stroke="red" cx="896.33" cy="-783.16" rx="137.36" ry="26.74"/>
<text text-anchor="middle" x="896.33" y="-786.96" font-family="Times New Roman,serif" font-size="14.00">Represent data (up to 100) in</text>
<text text-anchor="middle" x="896.33" y="-771.96" font-family="Times New Roman,serif" font-size="14.00">a tally mark table. (M_DH_4_2)</text>
</g>
<!-- M_DH_3_2&#45;&gt;M_DH_4_2 -->
<g id="edge14" class="edge">
<title>M_DH_3_2&#45;&gt;M_DH_4_2</title>
<path fill="none" stroke="black" d="M896.33,-898.79C896.33,-876.66 896.33,-844.73 896.33,-820.19"/>
<polygon fill="black" stroke="black" points="899.83,-820.17 896.33,-810.17 892.83,-820.17 899.83,-820.17"/>
</g>
<!-- M_DH_5_2 -->
<g id="node22" class="node">
<title>M_DH_5_2</title>
<ellipse fill="yellow" stroke="yellow" cx="1176.33" cy="-783.16" rx="125.32" ry="37.45"/>
<text text-anchor="middle" x="1176.33" y="-794.46" font-family="Times New Roman,serif" font-size="14.00">Represent and interpret</text>
<text text-anchor="middle" x="1176.33" y="-779.46" font-family="Times New Roman,serif" font-size="14.00">information using tally charts</text>
<text text-anchor="middle" x="1176.33" y="-764.46" font-family="Times New Roman,serif" font-size="14.00">(M_DH_5_2)</text>
</g>
<!-- M_DH_3_2&#45;&gt;M_DH_5_2 -->
<g id="edge24" class="edge">
<title>M_DH_3_2&#45;&gt;M_DH_5_2</title>
<path fill="none" stroke="black" d="M943.83,-901.05C987.82,-878.94 1053.87,-845.73 1104.34,-820.36"/>
<polygon fill="black" stroke="black" points="1106.21,-823.33 1113.57,-815.71 1103.07,-817.08 1106.21,-823.33"/>
</g>
<!-- M_DH_3_5 -->
<g id="node13" class="node">
<title>M_DH_3_5</title>
<ellipse fill="red" stroke="red" cx="122.33" cy="-640.39" rx="122.16" ry="37.45"/>
<text text-anchor="middle" x="122.33" y="-651.69" font-family="Times New Roman,serif" font-size="14.00">Interpret data (up to 100) in</text>
<text text-anchor="middle" x="122.33" y="-636.69" font-family="Times New Roman,serif" font-size="14.00">a pictograph with scale (1:5,</text>
<text text-anchor="middle" x="122.33" y="-621.69" font-family="Times New Roman,serif" font-size="14.00">1:10) (M_DH_3_5)</text>
</g>
<!-- M_DH_3_3&#45;&gt;M_DH_3_5 -->
<g id="edge12" class="edge">
<title>M_DH_3_3&#45;&gt;M_DH_3_5</title>
<path fill="none" stroke="black" d="M321.63,-757.8C284.44,-736.08 229.44,-703.95 186.63,-678.95"/>
<polygon fill="black" stroke="black" points="188.37,-675.91 177.97,-673.89 184.84,-681.95 188.37,-675.91"/>
</g>
<!-- M_DH_4_3 -->
<g id="node16" class="node">
<title>M_DH_4_3</title>
<ellipse fill="red" stroke="red" cx="609.33" cy="-640.39" rx="126.64" ry="37.45"/>
<text text-anchor="middle" x="609.33" y="-651.69" font-family="Times New Roman,serif" font-size="14.00">Represent data (up to 100) in</text>
<text text-anchor="middle" x="609.33" y="-636.69" font-family="Times New Roman,serif" font-size="14.00">a pictograph without scale.</text>
<text text-anchor="middle" x="609.33" y="-621.69" font-family="Times New Roman,serif" font-size="14.00">(M_DH_4_3)</text>
</g>
<!-- M_DH_3_3&#45;&gt;M_DH_4_3 -->
<g id="edge15" class="edge">
<title>M_DH_3_3&#45;&gt;M_DH_4_3</title>
<path fill="none" stroke="black" d="M405.62,-757.96C443.53,-736.27 499.76,-704.09 543.55,-679.03"/>
<polygon fill="black" stroke="black" points="545.47,-681.97 552.41,-673.96 541.99,-675.89 545.47,-681.97"/>
</g>
<!-- M_DH_7_1 -->
<g id="node26" class="node">
<title>M_DH_7_1</title>
<ellipse fill="yellow" stroke="yellow" cx="363.33" cy="-640.39" rx="101.23" ry="37.45"/>
<text text-anchor="middle" x="363.33" y="-651.69" font-family="Times New Roman,serif" font-size="14.00">Interpret information</text>
<text text-anchor="middle" x="363.33" y="-636.69" font-family="Times New Roman,serif" font-size="14.00">presented in vertial bar</text>
<text text-anchor="middle" x="363.33" y="-621.69" font-family="Times New Roman,serif" font-size="14.00">graphs (M_DH_7_1)</text>
</g>
<!-- M_DH_3_3&#45;&gt;M_DH_7_1 -->
<g id="edge29" class="edge">
<title>M_DH_3_3&#45;&gt;M_DH_7_1</title>
<path fill="none" stroke="black" d="M363.33,-756.01C363.33,-736.98 363.33,-710.7 363.33,-688.1"/>
<polygon fill="black" stroke="black" points="366.83,-688.01 363.33,-678.01 359.83,-688.01 366.83,-688.01"/>
</g>
<!-- M_DH_4_4 -->
<g id="node17" class="node">
<title>M_DH_4_4</title>
<ellipse fill="red" stroke="red" cx="882.33" cy="-640.39" rx="128.89" ry="37.45"/>
<text text-anchor="middle" x="882.33" y="-651.69" font-family="Times New Roman,serif" font-size="14.00">Represent data (up to 100) as</text>
<text text-anchor="middle" x="882.33" y="-636.69" font-family="Times New Roman,serif" font-size="14.00">a pictograph with scale (1:5,</text>
<text text-anchor="middle" x="882.33" y="-621.69" font-family="Times New Roman,serif" font-size="14.00">1:10) (M_DH_4_4)</text>
</g>
<!-- M_DH_3_4&#45;&gt;M_DH_4_4 -->
<g id="edge16" class="edge">
<title>M_DH_3_4&#45;&gt;M_DH_4_4</title>
<path fill="none" stroke="black" d="M680.23,-750.39C719.73,-729.09 771.91,-700.95 813.35,-678.59"/>
<polygon fill="black" stroke="black" points="815.15,-681.6 822.29,-673.77 811.83,-675.44 815.15,-681.6"/>
</g>
<!-- M_DH_3_4&#45;&gt;M_DH_7_1 -->
<g id="edge30" class="edge">
<title>M_DH_3_4&#45;&gt;M_DH_7_1</title>
<path fill="none" stroke="black" d="M562.79,-750.22C522.62,-728.3 469.3,-699.21 427.9,-676.62"/>
<polygon fill="black" stroke="black" points="429.44,-673.48 418.99,-671.76 426.09,-679.62 429.44,-673.48"/>
</g>
<!-- M_DH_4_6 -->
<g id="node19" class="node">
<title>M_DH_4_6</title>
<ellipse fill="red" stroke="red" cx="1018.33" cy="-497.62" rx="132.46" ry="58.88"/>
<text text-anchor="middle" x="1018.33" y="-523.92" font-family="Times New Roman,serif" font-size="14.00">Reflect and compare which</text>
<text text-anchor="middle" x="1018.33" y="-508.92" font-family="Times New Roman,serif" font-size="14.00">method of data representation</text>
<text text-anchor="middle" x="1018.33" y="-493.92" font-family="Times New Roman,serif" font-size="14.00">(list, tally, pictograph) is</text>
<text text-anchor="middle" x="1018.33" y="-478.92" font-family="Times New Roman,serif" font-size="14.00">better for which data and why.</text>
<text text-anchor="middle" x="1018.33" y="-463.92" font-family="Times New Roman,serif" font-size="14.00">(M_DH_4_6)</text>
</g>
<!-- M_DH_4_1&#45;&gt;M_DH_4_6 -->
<g id="edge18" class="edge">
<title>M_DH_4_1&#45;&gt;M_DH_4_6</title>
<path fill="none" stroke="black" d="M1677.71,-757.7C1651.81,-741.01 1619.71,-716.83 1598.33,-688.47 1570.66,-651.78 1595.98,-621.3 1560.33,-592.31 1556.33,-589.05 1310.55,-547.46 1151.37,-520.8"/>
<polygon fill="black" stroke="black" points="1151.93,-517.35 1141.49,-519.15 1150.78,-524.25 1151.93,-517.35"/>
</g>
<!-- M_DH_4_2&#45;&gt;M_DH_4_6 -->
<g id="edge19" class="edge">
<title>M_DH_4_2&#45;&gt;M_DH_4_6</title>
<path fill="none" stroke="black" d="M947.42,-758.14C974.42,-742.45 1005.06,-719.15 1020.33,-688.47 1039.01,-650.95 1038.64,-603.87 1033.54,-565.98"/>
<polygon fill="black" stroke="black" points="1036.99,-565.44 1032.06,-556.06 1030.07,-566.46 1036.99,-565.44"/>
</g>
<!-- M_DH_4_3&#45;&gt;M_DH_4_6 -->
<g id="edge20" class="edge">
<title>M_DH_4_3&#45;&gt;M_DH_4_6</title>
<path fill="none" stroke="black" d="M688.34,-611.08C706.66,-604.72 726.13,-598.14 744.33,-592.31 798.57,-574.92 813.35,-574.48 867.33,-556.31 881.51,-551.53 896.33,-546.24 910.92,-540.86"/>
<polygon fill="black" stroke="black" points="912.3,-544.08 920.46,-537.31 909.87,-537.52 912.3,-544.08"/>
</g>
<!-- M_DH_7_3 -->
<g id="node28" class="node">
<title>M_DH_7_3</title>
<ellipse fill="yellow" stroke="yellow" cx="609.33" cy="-344.24" rx="120.42" ry="37.45"/>
<text text-anchor="middle" x="609.33" y="-355.54" font-family="Times New Roman,serif" font-size="14.00">Compare the need for a</text>
<text text-anchor="middle" x="609.33" y="-340.54" font-family="Times New Roman,serif" font-size="14.00">pictograph versus a vertical</text>
<text text-anchor="middle" x="609.33" y="-325.54" font-family="Times New Roman,serif" font-size="14.00">bar graph (M_DH_7_3)</text>
</g>
<!-- M_DH_4_3&#45;&gt;M_DH_7_3 -->
<g id="edge32" class="edge">
<title>M_DH_4_3&#45;&gt;M_DH_7_3</title>
<path fill="none" stroke="black" d="M609.33,-602.73C609.33,-549.41 609.33,-450.46 609.33,-391.97"/>
<polygon fill="black" stroke="black" points="612.83,-391.89 609.33,-381.89 605.83,-391.89 612.83,-391.89"/>
</g>
<!-- M_DH_9_1 -->
<g id="node31" class="node">
<title>M_DH_9_1</title>
<ellipse fill="green" stroke="green" cx="753.33" cy="-497.62" rx="104.8" ry="37.45"/>
<text text-anchor="middle" x="753.33" y="-508.92" font-family="Times New Roman,serif" font-size="14.00">Represent and interpret</text>
<text text-anchor="middle" x="753.33" y="-493.92" font-family="Times New Roman,serif" font-size="14.00">pictographs with 2 or 3</text>
<text text-anchor="middle" x="753.33" y="-478.92" font-family="Times New Roman,serif" font-size="14.00">attributes (M_DH_9_1)</text>
</g>
<!-- M_DH_4_3&#45;&gt;M_DH_9_1 -->
<g id="edge36" class="edge">
<title>M_DH_4_3&#45;&gt;M_DH_9_1</title>
<path fill="none" stroke="black" d="M645.3,-604.23C665.12,-584.85 689.85,-560.67 710.64,-540.34"/>
<polygon fill="black" stroke="black" points="713.12,-542.82 717.82,-533.33 708.22,-537.82 713.12,-542.82"/>
</g>
<!-- M_DH_4_4&#45;&gt;M_DH_4_6 -->
<g id="edge21" class="edge">
<title>M_DH_4_4&#45;&gt;M_DH_4_6</title>
<path fill="none" stroke="black" d="M916.3,-604.23C929.41,-590.65 944.81,-574.72 959.6,-559.4"/>
<polygon fill="black" stroke="black" points="962.38,-561.57 966.81,-551.95 957.34,-556.71 962.38,-561.57"/>
</g>
<!-- M_DH_4_4&#45;&gt;M_DH_9_1 -->
<g id="edge37" class="edge">
<title>M_DH_4_4&#45;&gt;M_DH_9_1</title>
<path fill="none" stroke="black" d="M849.78,-603.87C832.3,-584.8 810.65,-561.17 792.29,-541.13"/>
<polygon fill="black" stroke="black" points="794.76,-538.65 785.42,-533.64 789.6,-543.38 794.76,-538.65"/>
</g>
<!-- M_DH_4_7 -->
<g id="node20" class="node">
<title>M_DH_4_7</title>
<ellipse fill="red" stroke="red" cx="1018.33" cy="-344.24" rx="135.53" ry="37.45"/>
<text text-anchor="middle" x="1018.33" y="-355.54" font-family="Times New Roman,serif" font-size="14.00">Interpret data (up to 100) and</text>
<text text-anchor="middle" x="1018.33" y="-340.54" font-family="Times New Roman,serif" font-size="14.00">answer questions based upon it</text>
<text text-anchor="middle" x="1018.33" y="-325.54" font-family="Times New Roman,serif" font-size="14.00">(word problems) (M_DH_4_7)</text>
</g>
<!-- M_DH_4_6&#45;&gt;M_DH_4_7 -->
<g id="edge22" class="edge">
<title>M_DH_4_6&#45;&gt;M_DH_4_7</title>
<path fill="none" stroke="black" d="M1018.33,-438.52C1018.33,-423.22 1018.33,-406.91 1018.33,-392.28"/>
<polygon fill="black" stroke="black" points="1021.83,-391.95 1018.33,-381.95 1014.83,-391.95 1021.83,-391.95"/>
</g>
<!-- M_DH_6_1 -->
<g id="node24" class="node">
<title>M_DH_6_1</title>
<ellipse fill="yellow" stroke="yellow" cx="1729.33" cy="-640.39" rx="122.16" ry="26.74"/>
<text text-anchor="middle" x="1729.33" y="-644.19" font-family="Times New Roman,serif" font-size="14.00">Represent and interpret data</text>
<text text-anchor="middle" x="1729.33" y="-629.19" font-family="Times New Roman,serif" font-size="14.00">frequency &#160;(M_DH_6_1)</text>
</g>
<!-- M_DH_5_2&#45;&gt;M_DH_6_1 -->
<g id="edge26" class="edge">
<title>M_DH_5_2&#45;&gt;M_DH_6_1</title>
<path fill="none" stroke="black" d="M1239.83,-750.76C1261.72,-741.04 1286.68,-731.14 1310.33,-724.47 1418.38,-694.01 1450.48,-711.58 1560.33,-688.47 1590.19,-682.19 1622.56,-673.61 1650.91,-665.5"/>
<polygon fill="black" stroke="black" points="1652.12,-668.79 1660.75,-662.66 1650.18,-662.07 1652.12,-668.79"/>
</g>
<!-- M_DH_5_3&#45;&gt;M_DH_6_1 -->
<g id="edge27" class="edge">
<title>M_DH_5_3&#45;&gt;M_DH_6_1</title>
<path fill="none" stroke="black" d="M1916.54,-750.75C1875.66,-726.86 1819.81,-694.24 1779.78,-670.86"/>
<polygon fill="black" stroke="black" points="1781.38,-667.74 1770.98,-665.72 1777.85,-673.78 1781.38,-667.74"/>
</g>
<!-- M_DH_8_1 -->
<g id="node29" class="node">
<title>M_DH_8_1</title>
<ellipse fill="green" stroke="green" cx="1995.33" cy="-640.39" rx="122.16" ry="37.45"/>
<text text-anchor="middle" x="1995.33" y="-651.69" font-family="Times New Roman,serif" font-size="14.00">Represent and interpret data</text>
<text text-anchor="middle" x="1995.33" y="-636.69" font-family="Times New Roman,serif" font-size="14.00">from tables with 2 or 3</text>
<text text-anchor="middle" x="1995.33" y="-621.69" font-family="Times New Roman,serif" font-size="14.00">attributes (M_DH_8_1)</text>
</g>
<!-- M_DH_5_3&#45;&gt;M_DH_8_1 -->
<g id="edge34" class="edge">
<title>M_DH_5_3&#45;&gt;M_DH_8_1</title>
<path fill="none" stroke="black" d="M1976.83,-745.54C1979.96,-727.95 1983.74,-706.66 1987.06,-687.93"/>
<polygon fill="black" stroke="black" points="1990.56,-688.28 1988.86,-677.82 1983.66,-687.06 1990.56,-688.28"/>
</g>
<!-- M_DH_6_2 -->
<g id="node25" class="node">
<title>M_DH_6_2</title>
<ellipse fill="yellow" stroke="yellow" cx="1483.33" cy="-497.62" rx="107.46" ry="26.74"/>
<text text-anchor="middle" x="1483.33" y="-501.42" font-family="Times New Roman,serif" font-size="14.00">Infer patterns from data</text>
<text text-anchor="middle" x="1483.33" y="-486.42" font-family="Times New Roman,serif" font-size="14.00">frequency (M_DH_6_2)</text>
</g>
<!-- M_DH_6_1&#45;&gt;M_DH_6_2 -->
<g id="edge28" class="edge">
<title>M_DH_6_1&#45;&gt;M_DH_6_2</title>
<path fill="none" stroke="black" d="M1686.76,-615.03C1644.22,-590.68 1578.81,-553.25 1533.71,-527.44"/>
<polygon fill="black" stroke="black" points="1535.39,-524.37 1524.97,-522.44 1531.91,-530.45 1535.39,-524.37"/>
</g>
<!-- M_DH_11_1 -->
<g id="node34" class="node">
<title>M_DH_11_1</title>
<ellipse fill="pink" stroke="pink" cx="1729.33" cy="-497.62" rx="120.42" ry="48.17"/>
<text text-anchor="middle" x="1729.33" y="-516.42" font-family="Times New Roman,serif" font-size="14.00">Compute frequency of data</text>
<text text-anchor="middle" x="1729.33" y="-501.42" font-family="Times New Roman,serif" font-size="14.00">presented (tables,</text>
<text text-anchor="middle" x="1729.33" y="-486.42" font-family="Times New Roman,serif" font-size="14.00">pictographs, bar graphs)</text>
<text text-anchor="middle" x="1729.33" y="-471.42" font-family="Times New Roman,serif" font-size="14.00">(M_DH_11_1)</text>
</g>
<!-- M_DH_6_1&#45;&gt;M_DH_11_1 -->
<g id="edge39" class="edge">
<title>M_DH_6_1&#45;&gt;M_DH_11_1</title>
<path fill="none" stroke="black" d="M1729.33,-613.24C1729.33,-597.13 1729.33,-575.81 1729.33,-555.93"/>
<polygon fill="black" stroke="black" points="1732.83,-555.7 1729.33,-545.7 1725.83,-555.7 1732.83,-555.7"/>
</g>
<!-- M_DH_7_2 -->
<g id="node27" class="node">
<title>M_DH_7_2</title>
<ellipse fill="yellow" stroke="yellow" cx="363.33" cy="-497.62" rx="136.44" ry="26.74"/>
<text text-anchor="middle" x="363.33" y="-501.42" font-family="Times New Roman,serif" font-size="14.00">Represent information using</text>
<text text-anchor="middle" x="363.33" y="-486.42" font-family="Times New Roman,serif" font-size="14.00">vertial bar graphs (M_DH_7_2)</text>
</g>
<!-- M_DH_7_1&#45;&gt;M_DH_7_2 -->
<g id="edge31" class="edge">
<title>M_DH_7_1&#45;&gt;M_DH_7_2</title>
<path fill="none" stroke="black" d="M363.33,-602.77C363.33,-581.86 363.33,-555.75 363.33,-534.9"/>
<polygon fill="black" stroke="black" points="366.83,-534.83 363.33,-524.83 359.83,-534.83 366.83,-534.83"/>
</g>
<!-- M_DH_7_2&#45;&gt;M_DH_7_3 -->
<g id="edge33" class="edge">
<title>M_DH_7_2&#45;&gt;M_DH_7_3</title>
<path fill="none" stroke="black" d="M403.68,-471.79C442.73,-447.75 502.48,-410.99 547.53,-383.26"/>
<polygon fill="black" stroke="black" points="549.37,-386.24 556.05,-378.02 545.7,-380.28 549.37,-386.24"/>
</g>
<!-- M_DH_9_2 -->
<g id="node32" class="node">
<title>M_DH_9_2</title>
<ellipse fill="green" stroke="green" cx="351.33" cy="-344.24" rx="119.5" ry="37.45"/>
<text text-anchor="middle" x="351.33" y="-355.54" font-family="Times New Roman,serif" font-size="14.00">Represent and interpret bar</text>
<text text-anchor="middle" x="351.33" y="-340.54" font-family="Times New Roman,serif" font-size="14.00">charts with 2 or 3 attributes</text>
<text text-anchor="middle" x="351.33" y="-325.54" font-family="Times New Roman,serif" font-size="14.00">(M_DH_9_2)</text>
</g>
<!-- M_DH_7_2&#45;&gt;M_DH_9_2 -->
<g id="edge38" class="edge">
<title>M_DH_7_2&#45;&gt;M_DH_9_2</title>
<path fill="none" stroke="black" d="M361.27,-470.59C359.56,-449.03 357.08,-417.82 355.03,-391.95"/>
<polygon fill="black" stroke="black" points="358.52,-391.65 354.24,-381.96 351.54,-392.2 358.52,-391.65"/>
</g>
<!-- M_DH_8_2 -->
<g id="node30" class="node">
<title>M_DH_8_2</title>
<ellipse fill="green" stroke="green" cx="1997.33" cy="-497.62" rx="130.22" ry="37.45"/>
<text text-anchor="middle" x="1997.33" y="-508.92" font-family="Times New Roman,serif" font-size="14.00">Compare quantity information</text>
<text text-anchor="middle" x="1997.33" y="-493.92" font-family="Times New Roman,serif" font-size="14.00">across attributes in a table.</text>
<text text-anchor="middle" x="1997.33" y="-478.92" font-family="Times New Roman,serif" font-size="14.00">(M_DH_8_2)</text>
</g>
<!-- M_DH_8_1&#45;&gt;M_DH_8_2 -->
<g id="edge35" class="edge">
<title>M_DH_8_1&#45;&gt;M_DH_8_2</title>
<path fill="none" stroke="black" d="M1995.85,-602.77C1996.1,-585.31 1996.4,-564.22 1996.66,-545.59"/>
<polygon fill="black" stroke="black" points="2000.16,-545.59 1996.8,-535.54 1993.16,-545.49 2000.16,-545.59"/>
</g>
<!-- M_DH_11_2 -->
<g id="node35" class="node">
<title>M_DH_11_2</title>
<ellipse fill="pink" stroke="pink" cx="2138.33" cy="-344.24" rx="137.36" ry="58.88"/>
<text text-anchor="middle" x="2138.33" y="-370.54" font-family="Times New Roman,serif" font-size="14.00">Compare and draw conclusions</text>
<text text-anchor="middle" x="2138.33" y="-355.54" font-family="Times New Roman,serif" font-size="14.00">based on data presented</text>
<text text-anchor="middle" x="2138.33" y="-340.54" font-family="Times New Roman,serif" font-size="14.00">(tables, pictographs, pie&#45;</text>
<text text-anchor="middle" x="2138.33" y="-325.54" font-family="Times New Roman,serif" font-size="14.00">charts, bar graphs)</text>
<text text-anchor="middle" x="2138.33" y="-310.54" font-family="Times New Roman,serif" font-size="14.00">(M_DH_11_2)</text>
</g>
<!-- M_DH_8_2&#45;&gt;M_DH_11_2 -->
<g id="edge41" class="edge">
<title>M_DH_8_2&#45;&gt;M_DH_11_2</title>
<path fill="none" stroke="black" d="M2030.39,-461.12C2045.55,-444.85 2063.97,-425.07 2081.26,-406.5"/>
<polygon fill="black" stroke="black" points="2083.83,-408.89 2088.08,-399.18 2078.71,-404.11 2083.83,-408.89"/>
</g>
<!-- M_DH_10_1 -->
<g id="node33" class="node">
<title>M_DH_10_1</title>
<ellipse fill="green" stroke="green" cx="2280.33" cy="-497.62" rx="135.11" ry="37.45"/>
<text text-anchor="middle" x="2280.33" y="-508.92" font-family="Times New Roman,serif" font-size="14.00">Represent and interpret</text>
<text text-anchor="middle" x="2280.33" y="-493.92" font-family="Times New Roman,serif" font-size="14.00">information as pie&#45;charts with</text>
<text text-anchor="middle" x="2280.33" y="-478.92" font-family="Times New Roman,serif" font-size="14.00">2 or 3 attributes (M_DH_10_1)</text>
</g>
<!-- M_DH_10_1&#45;&gt;M_DH_11_2 -->
<g id="edge40" class="edge">
<title>M_DH_10_1&#45;&gt;M_DH_11_2</title>
<path fill="none" stroke="black" d="M2247.04,-461.12C2231.69,-444.77 2213.04,-424.89 2195.55,-406.24"/>
<polygon fill="black" stroke="black" points="2198.05,-403.79 2188.66,-398.89 2192.95,-408.58 2198.05,-403.79"/>
</g>
<!-- M_DH_11_3 -->
<g id="node36" class="node">
<title>M_DH_11_3</title>
<ellipse fill="pink" stroke="pink" cx="1999.33" cy="-190.86" rx="132.46" ry="58.88"/>
<text text-anchor="middle" x="1999.33" y="-217.16" font-family="Times New Roman,serif" font-size="14.00">Reflect and compare which</text>
<text text-anchor="middle" x="1999.33" y="-202.16" font-family="Times New Roman,serif" font-size="14.00">method of data representation</text>
<text text-anchor="middle" x="1999.33" y="-187.16" font-family="Times New Roman,serif" font-size="14.00">(bar graph, pie&#45;chart) is</text>
<text text-anchor="middle" x="1999.33" y="-172.16" font-family="Times New Roman,serif" font-size="14.00">better for which data and why.</text>
<text text-anchor="middle" x="1999.33" y="-157.16" font-family="Times New Roman,serif" font-size="14.00">(M_DH_11_3)</text>
</g>
<!-- M_DH_11_2&#45;&gt;M_DH_11_3 -->
<g id="edge42" class="edge">
<title>M_DH_11_2&#45;&gt;M_DH_11_3</title>
<path fill="none" stroke="black" d="M2088.93,-289.44C2078.08,-277.62 2066.5,-265.01 2055.41,-252.93"/>
<polygon fill="black" stroke="black" points="2057.91,-250.48 2048.57,-245.48 2052.75,-255.21 2057.91,-250.48"/>
</g>
<!-- M_DH_11_4 -->
<g id="node37" class="node">
<title>M_DH_11_4</title>
<ellipse fill="pink" stroke="pink" cx="2276.33" cy="-190.86" rx="126.64" ry="48.17"/>
<text text-anchor="middle" x="2276.33" y="-209.66" font-family="Times New Roman,serif" font-size="14.00">Represent event data in a</text>
<text text-anchor="middle" x="2276.33" y="-194.66" font-family="Times New Roman,serif" font-size="14.00">chart to make decisions</text>
<text text-anchor="middle" x="2276.33" y="-179.66" font-family="Times New Roman,serif" font-size="14.00">fluently based on information</text>
<text text-anchor="middle" x="2276.33" y="-164.66" font-family="Times New Roman,serif" font-size="14.00">presented (M_DH_11_4)</text>
</g>
<!-- M_DH_11_2&#45;&gt;M_DH_11_4 -->
<g id="edge43" class="edge">
<title>M_DH_11_2&#45;&gt;M_DH_11_4</title>
<path fill="none" stroke="black" d="M2187.76,-289.01C2201.06,-274.42 2215.43,-258.66 2228.63,-244.18"/>
<polygon fill="black" stroke="black" points="2231.27,-246.48 2235.42,-236.73 2226.1,-241.76 2231.27,-246.48"/>
</g>
<!-- M_DH_11_5 -->
<g id="node38" class="node">
<title>M_DH_11_5</title>
<ellipse fill="pink" stroke="pink" cx="2276.33" cy="-48.08" rx="118.17" ry="48.17"/>
<text text-anchor="middle" x="2276.33" y="-66.88" font-family="Times New Roman,serif" font-size="14.00">Use data handling to find</text>
<text text-anchor="middle" x="2276.33" y="-51.88" font-family="Times New Roman,serif" font-size="14.00">solutions to real&#45;life</text>
<text text-anchor="middle" x="2276.33" y="-36.88" font-family="Times New Roman,serif" font-size="14.00">situations (word problems)</text>
<text text-anchor="middle" x="2276.33" y="-21.88" font-family="Times New Roman,serif" font-size="14.00">(M_DH_11_5)</text>
</g>
<!-- M_DH_11_4&#45;&gt;M_DH_11_5 -->
<g id="edge44" class="edge">
<title>M_DH_11_4&#45;&gt;M_DH_11_5</title>
<path fill="none" stroke="black" d="M2276.33,-142.59C2276.33,-131.1 2276.33,-118.68 2276.33,-106.77"/>
<polygon fill="black" stroke="black" points="2279.83,-106.47 2276.33,-96.47 2272.83,-106.47 2279.83,-106.47"/>
</g>
</g>
</svg>
