<?xml version="1.0" encoding="UTF-8" standalone="no"?>
<!DOCTYPE svg PUBLIC "-//W3C//DTD SVG 1.1//EN"
 "http://www.w3.org/Graphics/SVG/1.1/DTD/svg11.dtd">
<!-- Generated by graphviz version 2.50.0 (20211204.2007)
 -->
<!-- Title: G Pages: 1 -->
<svg width="2271pt" height="765pt"
 viewBox="0.00 0.00 2271.00 765.47" xmlns="http://www.w3.org/2000/svg" xmlns:xlink="http://www.w3.org/1999/xlink">
<g id="graph0" class="graph" transform="scale(1 1) rotate(0) translate(4 761.47)">
<title>G</title>
<polygon fill="white" stroke="transparent" points="-4,4 -4,-761.47 2267,-761.47 2267,4 -4,4"/>
<g id="clust1" class="cluster">
<title>cluster0</title>
<polygon fill="blue" stroke="blue" points="8,-482.14 8,-749.47 1161,-749.47 1161,-482.14 8,-482.14"/>
<text text-anchor="middle" x="584.5" y="-734.27" font-family="Times New Roman,serif" font-size="14.00">Kindergarten</text>
</g>
<g id="clust2" class="cluster">
<title>cluster1</title>
<polygon fill="red" stroke="red" points="38,-161.38 38,-474.14 1119,-474.14 1119,-161.38 38,-161.38"/>
<text text-anchor="middle" x="578.5" y="-458.94" font-family="Times New Roman,serif" font-size="14.00">Grade 1</text>
</g>
<g id="clust5" class="cluster">
<title>cluster4</title>
<polygon fill="green" stroke="green" points="1127,-8 1127,-296.55 1953,-296.55 1953,-8 1127,-8"/>
<text text-anchor="middle" x="1540" y="-281.35" font-family="Times New Roman,serif" font-size="14.00">Grade 3</text>
</g>
<g id="clust3" class="cluster">
<title>cluster2</title>
<polygon fill="yellow" stroke="yellow" points="1689,-317.76 1689,-452.93 2255,-452.93 2255,-317.76 1689,-317.76"/>
<text text-anchor="middle" x="1972" y="-437.73" font-family="Times New Roman,serif" font-size="14.00">Grade 2</text>
</g>
<g id="clust9" class="cluster">
<title>cluster8</title>
<polygon fill="white" stroke="white" points="1417,-338.97 1417,-431.71 1681,-431.71 1681,-338.97 1417,-338.97"/>
<text text-anchor="middle" x="1549" y="-416.51" font-family="Times New Roman,serif" font-size="14.00">Unknown Grade</text>
</g>
<!-- QSC33 -->
<g id="node1" class="node">
<title>QSC33</title>
<ellipse fill="none" stroke="black" cx="717" cy="-670.39" rx="137.77" ry="48.17"/>
<text text-anchor="middle" x="717" y="-689.19" font-family="Times New Roman,serif" font-size="14.00">Represent numbers up to 100 in</text>
<text text-anchor="middle" x="717" y="-674.19" font-family="Times New Roman,serif" font-size="14.00">a variety of ways such as</text>
<text text-anchor="middle" x="717" y="-659.19" font-family="Times New Roman,serif" font-size="14.00">tallies, ten frames, and other</text>
<text text-anchor="middle" x="717" y="-644.19" font-family="Times New Roman,serif" font-size="14.00">models. (QSC33)</text>
</g>
<!-- QSC60 -->
<g id="node7" class="node">
<title>QSC60</title>
<ellipse fill="none" stroke="black" cx="717" cy="-373.84" rx="117.26" ry="48.17"/>
<text text-anchor="middle" x="717" y="-392.64" font-family="Times New Roman,serif" font-size="14.00">Organize, display, and</text>
<text text-anchor="middle" x="717" y="-377.64" font-family="Times New Roman,serif" font-size="14.00">interpret information in line</text>
<text text-anchor="middle" x="717" y="-362.64" font-family="Times New Roman,serif" font-size="14.00">plots and tally charts.</text>
<text text-anchor="middle" x="717" y="-347.64" font-family="Times New Roman,serif" font-size="14.00">(QSC60)</text>
</g>
<!-- QSC33&#45;&gt;QSC60 -->
<g id="edge7" class="edge">
<title>QSC33&#45;&gt;QSC60</title>
<path fill="none" stroke="black" d="M717,-622.07C717,-570.32 717,-487.41 717,-432.05"/>
<polygon fill="black" stroke="black" points="720.5,-432.05 717,-422.05 713.5,-432.05 720.5,-432.05"/>
</g>
<!-- QSC7 -->
<g id="node2" class="node">
<title>QSC7</title>
<ellipse fill="none" stroke="black" cx="434" cy="-670.39" rx="127.06" ry="48.17"/>
<text text-anchor="middle" x="434" y="-689.19" font-family="Times New Roman,serif" font-size="14.00">Create and identify sets with</text>
<text text-anchor="middle" x="434" y="-674.19" font-family="Times New Roman,serif" font-size="14.00">greater than, less than, or</text>
<text text-anchor="middle" x="434" y="-659.19" font-family="Times New Roman,serif" font-size="14.00">equal number of members by</text>
<text text-anchor="middle" x="434" y="-644.19" font-family="Times New Roman,serif" font-size="14.00">matching. (QSC7)</text>
</g>
<!-- QSC20 -->
<g id="node4" class="node">
<title>QSC20</title>
<ellipse fill="none" stroke="black" cx="434" cy="-538.22" rx="118.17" ry="48.17"/>
<text text-anchor="middle" x="434" y="-557.02" font-family="Times New Roman,serif" font-size="14.00">Organize, display, and</text>
<text text-anchor="middle" x="434" y="-542.02" font-family="Times New Roman,serif" font-size="14.00">interpret information in</text>
<text text-anchor="middle" x="434" y="-527.02" font-family="Times New Roman,serif" font-size="14.00">concrete or picture graphs.</text>
<text text-anchor="middle" x="434" y="-512.02" font-family="Times New Roman,serif" font-size="14.00">(QSC20)</text>
</g>
<!-- QSC7&#45;&gt;QSC20 -->
<g id="edge1" class="edge">
<title>QSC7&#45;&gt;QSC20</title>
<path fill="none" stroke="black" d="M434,-622.03C434,-613.76 434,-605.08 434,-596.57"/>
<polygon fill="black" stroke="black" points="437.5,-596.33 434,-586.33 430.5,-596.33 437.5,-596.33"/>
</g>
<!-- QSC16 -->
<g id="node3" class="node">
<title>QSC16</title>
<ellipse fill="none" stroke="black" cx="152" cy="-670.39" rx="136.44" ry="37.45"/>
<text text-anchor="middle" x="152" y="-681.69" font-family="Times New Roman,serif" font-size="14.00">Describe likenesses and</text>
<text text-anchor="middle" x="152" y="-666.69" font-family="Times New Roman,serif" font-size="14.00">differences between and among</text>
<text text-anchor="middle" x="152" y="-651.69" font-family="Times New Roman,serif" font-size="14.00">objects. (QSC16)</text>
</g>
<!-- QSC16&#45;&gt;QSC20 -->
<g id="edge2" class="edge">
<title>QSC16&#45;&gt;QSC20</title>
<path fill="none" stroke="black" d="M220.26,-637.88C258.6,-620.18 306.83,-597.92 347.76,-579.03"/>
<polygon fill="black" stroke="black" points="349.3,-582.17 356.91,-574.8 346.37,-575.82 349.3,-582.17"/>
</g>
<!-- QSC59 -->
<g id="node6" class="node">
<title>QSC59</title>
<ellipse fill="none" stroke="black" cx="180" cy="-206.86" rx="123.07" ry="37.45"/>
<text text-anchor="middle" x="180" y="-218.16" font-family="Times New Roman,serif" font-size="14.00">Answer comparative and</text>
<text text-anchor="middle" x="180" y="-203.16" font-family="Times New Roman,serif" font-size="14.00">quantitative questions about</text>
<text text-anchor="middle" x="180" y="-188.16" font-family="Times New Roman,serif" font-size="14.00">charts and graphs. (QSC59)</text>
</g>
<!-- QSC20&#45;&gt;QSC59 -->
<g id="edge3" class="edge">
<title>QSC20&#45;&gt;QSC59</title>
<path fill="none" stroke="black" d="M315.77,-534.82C212.03,-529.91 72.34,-515.54 37,-474.14 -11.94,-416.81 1.65,-371.12 37,-304.55 50.89,-278.38 75.38,-258.01 100.2,-242.85"/>
<polygon fill="black" stroke="black" points="102.12,-245.79 108.98,-237.71 98.58,-239.75 102.12,-245.79"/>
</g>
<!-- QSC20&#45;&gt;QSC60 -->
<g id="edge6" class="edge">
<title>QSC20&#45;&gt;QSC60</title>
<path fill="none" stroke="black" d="M522.67,-506.35C545.23,-497.17 569.01,-486.27 590,-474.14 614.5,-459.99 639.45,-441.53 660.68,-424.37"/>
<polygon fill="black" stroke="black" points="663.1,-426.91 668.62,-417.87 658.67,-421.49 663.1,-426.91"/>
</g>
<!-- QSC61 -->
<g id="node8" class="node">
<title>QSC61</title>
<ellipse fill="none" stroke="black" cx="982" cy="-373.84" rx="129.3" ry="48.17"/>
<text text-anchor="middle" x="982" y="-392.64" font-family="Times New Roman,serif" font-size="14.00">Organize, display, and</text>
<text text-anchor="middle" x="982" y="-377.64" font-family="Times New Roman,serif" font-size="14.00">interpret information in</text>
<text text-anchor="middle" x="982" y="-362.64" font-family="Times New Roman,serif" font-size="14.00">picture graphs and bar graphs</text>
<text text-anchor="middle" x="982" y="-347.64" font-family="Times New Roman,serif" font-size="14.00">using grids. (QSC61)</text>
</g>
<!-- QSC20&#45;&gt;QSC61 -->
<g id="edge8" class="edge">
<title>QSC20&#45;&gt;QSC61</title>
<path fill="none" stroke="black" d="M551.55,-533.53C635.44,-527.49 749.51,-512.21 843,-474.14 872.24,-462.23 901.2,-443.06 925.06,-424.71"/>
<polygon fill="black" stroke="black" points="927.23,-427.46 932.95,-418.54 922.92,-421.95 927.23,-427.46"/>
</g>
<!-- QSC54 -->
<g id="node5" class="node">
<title>QSC54</title>
<ellipse fill="none" stroke="black" cx="1013" cy="-670.39" rx="140.01" ry="26.74"/>
<text text-anchor="middle" x="1013" y="-674.19" font-family="Times New Roman,serif" font-size="14.00">Sort a set of objects in one</text>
<text text-anchor="middle" x="1013" y="-659.19" font-family="Times New Roman,serif" font-size="14.00">or more ways; explain. (QSC54)</text>
</g>
<!-- QSC54&#45;&gt;QSC61 -->
<g id="edge9" class="edge">
<title>QSC54&#45;&gt;QSC61</title>
<path fill="none" stroke="black" d="M1010.28,-643.51C1005.34,-596.57 994.79,-496.35 988.06,-432.46"/>
<polygon fill="black" stroke="black" points="991.51,-431.72 986.98,-422.14 984.54,-432.45 991.51,-431.72"/>
</g>
<!-- QSC136 -->
<g id="node14" class="node">
<title>QSC136</title>
<ellipse fill="none" stroke="black" cx="1821" cy="-206.86" rx="124.4" ry="58.88"/>
<text text-anchor="middle" x="1821" y="-233.16" font-family="Times New Roman,serif" font-size="14.00">Organize, display, and</text>
<text text-anchor="middle" x="1821" y="-218.16" font-family="Times New Roman,serif" font-size="14.00">interpret information in</text>
<text text-anchor="middle" x="1821" y="-203.16" font-family="Times New Roman,serif" font-size="14.00">graphs containing scales that</text>
<text text-anchor="middle" x="1821" y="-188.16" font-family="Times New Roman,serif" font-size="14.00">represent multiple units.</text>
<text text-anchor="middle" x="1821" y="-173.16" font-family="Times New Roman,serif" font-size="14.00">(QSC136)</text>
</g>
<!-- QSC60&#45;&gt;QSC136 -->
<g id="edge10" class="edge">
<title>QSC60&#45;&gt;QSC136</title>
<path fill="none" stroke="black" d="M777.5,-332.62C797.78,-321.28 821.09,-310.43 844,-304.55 889.42,-292.88 1643.19,-310.35 1688,-296.55 1710.74,-289.54 1733.17,-277.28 1752.95,-264.06"/>
<polygon fill="black" stroke="black" points="1754.99,-266.91 1761.25,-258.36 1751.03,-261.14 1754.99,-266.91"/>
</g>
<!-- QSC137 -->
<g id="node15" class="node">
<title>QSC137</title>
<ellipse fill="none" stroke="black" cx="1553" cy="-206.86" rx="125.73" ry="58.88"/>
<text text-anchor="middle" x="1553" y="-233.16" font-family="Times New Roman,serif" font-size="14.00">Organize, display, and</text>
<text text-anchor="middle" x="1553" y="-218.16" font-family="Times New Roman,serif" font-size="14.00">interpret information in</text>
<text text-anchor="middle" x="1553" y="-203.16" font-family="Times New Roman,serif" font-size="14.00">tables and graphs (frequency</text>
<text text-anchor="middle" x="1553" y="-188.16" font-family="Times New Roman,serif" font-size="14.00">tables, pictographs, and line</text>
<text text-anchor="middle" x="1553" y="-173.16" font-family="Times New Roman,serif" font-size="14.00">plots). (QSC137)</text>
</g>
<!-- QSC60&#45;&gt;QSC137 -->
<g id="edge14" class="edge">
<title>QSC60&#45;&gt;QSC137</title>
<path fill="none" stroke="black" d="M777.84,-332.5C798.05,-321.23 821.22,-310.45 844,-304.55 905.74,-288.54 1357.02,-315.25 1418,-296.55 1440.99,-289.5 1463.73,-277.22 1483.8,-264"/>
<polygon fill="black" stroke="black" points="1485.91,-266.8 1492.23,-258.3 1481.99,-261 1485.91,-266.8"/>
</g>
<!-- QSC61&#45;&gt;QSC136 -->
<g id="edge11" class="edge">
<title>QSC61&#45;&gt;QSC136</title>
<path fill="none" stroke="black" d="M1095.84,-350.72C1182.44,-334.89 1304.76,-314.66 1413,-304.55 1443.44,-301.7 1658.88,-305.83 1688,-296.55 1710.56,-289.35 1732.85,-277.11 1752.55,-263.97"/>
<polygon fill="black" stroke="black" points="1754.56,-266.84 1760.83,-258.3 1750.6,-261.06 1754.56,-266.84"/>
</g>
<!-- QSC26 -->
<g id="node9" class="node">
<title>QSC26</title>
<ellipse fill="none" stroke="black" cx="457" cy="-373.84" rx="124.4" ry="48.17"/>
<text text-anchor="middle" x="457" y="-392.64" font-family="Times New Roman,serif" font-size="14.00">Compare and order sets and</text>
<text text-anchor="middle" x="457" y="-377.64" font-family="Times New Roman,serif" font-size="14.00">numerals from 21 to 100,</text>
<text text-anchor="middle" x="457" y="-362.64" font-family="Times New Roman,serif" font-size="14.00">including using symbol</text>
<text text-anchor="middle" x="457" y="-347.64" font-family="Times New Roman,serif" font-size="14.00">notation (&gt;, &lt;, =). (QSC26)</text>
</g>
<!-- QSC26&#45;&gt;QSC59 -->
<g id="edge4" class="edge">
<title>QSC26&#45;&gt;QSC59</title>
<path fill="none" stroke="black" d="M390.3,-333.11C345.82,-306.62 287.68,-271.99 243.81,-245.86"/>
<polygon fill="black" stroke="black" points="245.34,-242.7 234.95,-240.59 241.75,-248.71 245.34,-242.7"/>
</g>
<!-- QSC617 -->
<g id="node10" class="node">
<title>QSC617</title>
<ellipse fill="none" stroke="black" cx="180" cy="-373.84" rx="134.2" ry="69.09"/>
<text text-anchor="middle" x="180" y="-407.64" font-family="Times New Roman,serif" font-size="14.00">Use counting strategies to add</text>
<text text-anchor="middle" x="180" y="-392.64" font-family="Times New Roman,serif" font-size="14.00">and subtract within 100 that</text>
<text text-anchor="middle" x="180" y="-377.64" font-family="Times New Roman,serif" font-size="14.00">include counting forward,</text>
<text text-anchor="middle" x="180" y="-362.64" font-family="Times New Roman,serif" font-size="14.00">counting backwards, grouping,</text>
<text text-anchor="middle" x="180" y="-347.64" font-family="Times New Roman,serif" font-size="14.00">ten frames, and hundred</text>
<text text-anchor="middle" x="180" y="-332.64" font-family="Times New Roman,serif" font-size="14.00">charts. (QSC617)</text>
</g>
<!-- QSC617&#45;&gt;QSC59 -->
<g id="edge5" class="edge">
<title>QSC617&#45;&gt;QSC59</title>
<path fill="none" stroke="black" d="M180,-304.31C180,-287.62 180,-270.14 180,-254.73"/>
<polygon fill="black" stroke="black" points="183.5,-254.41 180,-244.41 176.5,-254.41 183.5,-254.41"/>
</g>
<!-- QSC649 -->
<g id="node11" class="node">
<title>QSC649</title>
<ellipse fill="none" stroke="black" cx="2108" cy="-373.84" rx="139.1" ry="48.17"/>
<text text-anchor="middle" x="2108" y="-392.64" font-family="Times New Roman,serif" font-size="14.00">Estimate, measure, and compare</text>
<text text-anchor="middle" x="2108" y="-377.64" font-family="Times New Roman,serif" font-size="14.00">length using appropriate tools</text>
<text text-anchor="middle" x="2108" y="-362.64" font-family="Times New Roman,serif" font-size="14.00">and units in number and word</text>
<text text-anchor="middle" x="2108" y="-347.64" font-family="Times New Roman,serif" font-size="14.00">problems. (QSC649)</text>
</g>
<!-- QSC1012 -->
<g id="node13" class="node">
<title>QSC1012</title>
<ellipse fill="none" stroke="black" cx="1553" cy="-64.08" rx="130.22" ry="48.17"/>
<text text-anchor="middle" x="1553" y="-82.88" font-family="Times New Roman,serif" font-size="14.00">Organize, display, and</text>
<text text-anchor="middle" x="1553" y="-67.88" font-family="Times New Roman,serif" font-size="14.00">interpret information in line</text>
<text text-anchor="middle" x="1553" y="-52.88" font-family="Times New Roman,serif" font-size="14.00">plots with a horizontal scale</text>
<text text-anchor="middle" x="1553" y="-37.88" font-family="Times New Roman,serif" font-size="14.00">in fractional units. (QSC1012)</text>
</g>
<!-- QSC649&#45;&gt;QSC1012 -->
<g id="edge18" class="edge">
<title>QSC649&#45;&gt;QSC1012</title>
<path fill="none" stroke="black" d="M2088.94,-326.12C2065.25,-274.2 2019.75,-191.91 1954,-148.17 1910.58,-119.28 1785.23,-96.21 1686.11,-81.78"/>
<polygon fill="black" stroke="black" points="1686.39,-78.29 1675.99,-80.33 1685.39,-85.22 1686.39,-78.29"/>
</g>
<!-- QSC1007 -->
<g id="node12" class="node">
<title>QSC1007</title>
<ellipse fill="none" stroke="black" cx="1824" cy="-373.84" rx="126.64" ry="37.45"/>
<text text-anchor="middle" x="1824" y="-385.14" font-family="Times New Roman,serif" font-size="14.00">Skip count by 2s, 5s and 10s</text>
<text text-anchor="middle" x="1824" y="-370.14" font-family="Times New Roman,serif" font-size="14.00">beginning at any number.</text>
<text text-anchor="middle" x="1824" y="-355.14" font-family="Times New Roman,serif" font-size="14.00">(QSC1007)</text>
</g>
<!-- QSC1007&#45;&gt;QSC136 -->
<g id="edge13" class="edge">
<title>QSC1007&#45;&gt;QSC136</title>
<path fill="none" stroke="black" d="M1823.33,-336.23C1823.01,-318.44 1822.61,-296.48 1822.24,-275.79"/>
<polygon fill="black" stroke="black" points="1825.73,-275.69 1822.05,-265.76 1818.74,-275.82 1825.73,-275.69"/>
</g>
<!-- QSC137&#45;&gt;QSC1012 -->
<g id="edge16" class="edge">
<title>QSC137&#45;&gt;QSC1012</title>
<path fill="none" stroke="black" d="M1553,-147.79C1553,-139.39 1553,-130.74 1553,-122.36"/>
<polygon fill="black" stroke="black" points="1556.5,-122.3 1553,-112.3 1549.5,-122.3 1556.5,-122.3"/>
</g>
<!-- QSC538 -->
<g id="node16" class="node">
<title>QSC538</title>
<ellipse fill="none" stroke="black" cx="1272" cy="-206.86" rx="137.36" ry="48.17"/>
<text text-anchor="middle" x="1272" y="-225.66" font-family="Times New Roman,serif" font-size="14.00">Compare fractions with the</text>
<text text-anchor="middle" x="1272" y="-210.66" font-family="Times New Roman,serif" font-size="14.00">same numerator or denominator</text>
<text text-anchor="middle" x="1272" y="-195.66" font-family="Times New Roman,serif" font-size="14.00">concretely and symbolically.</text>
<text text-anchor="middle" x="1272" y="-180.66" font-family="Times New Roman,serif" font-size="14.00">(QSC538)</text>
</g>
<!-- QSC538&#45;&gt;QSC1012 -->
<g id="edge17" class="edge">
<title>QSC538&#45;&gt;QSC1012</title>
<path fill="none" stroke="black" d="M1349.53,-167.02C1386.07,-148.71 1429.78,-126.82 1467.3,-108.02"/>
<polygon fill="black" stroke="black" points="1469.32,-110.92 1476.7,-103.31 1466.19,-104.66 1469.32,-110.92"/>
</g>
<!-- QSC601 -->
<g id="node17" class="node">
<title>QSC601</title>
<ellipse fill="none" stroke="black" cx="1549" cy="-373.84" rx="124.4" ry="26.74"/>
<text text-anchor="middle" x="1549" y="-377.64" font-family="Times New Roman,serif" font-size="14.00">Skip count by 3s, 4s, 6s, 7s,</text>
<text text-anchor="middle" x="1549" y="-362.64" font-family="Times New Roman,serif" font-size="14.00">8s, and 9s. (QSC601)</text>
</g>
<!-- QSC601&#45;&gt;QSC136 -->
<g id="edge12" class="edge">
<title>QSC601&#45;&gt;QSC136</title>
<path fill="none" stroke="black" d="M1595.27,-348.74C1622.58,-334.19 1657.63,-314.96 1688,-296.55 1706.05,-285.6 1725.11,-273.33 1742.99,-261.49"/>
<polygon fill="black" stroke="black" points="1745.28,-264.17 1751.67,-255.72 1741.4,-258.35 1745.28,-264.17"/>
</g>
<!-- QSC601&#45;&gt;QSC137 -->
<g id="edge15" class="edge">
<title>QSC601&#45;&gt;QSC137</title>
<path fill="none" stroke="black" d="M1549.63,-346.7C1550.1,-327.61 1550.75,-300.82 1551.35,-275.85"/>
<polygon fill="black" stroke="black" points="1554.86,-275.74 1551.6,-265.66 1547.86,-275.57 1554.86,-275.74"/>
</g>
</g>
</svg>
